<mxfile host="app.diagrams.net" modified="2023-06-07T17:56:06.719Z" agent="Mozilla/5.0 (Macintosh; Intel Mac OS X 10_15_7) AppleWebKit/537.36 (KHTML, like Gecko) Chrome/113.0.0.0 Safari/537.36" etag="GHfsJUqD-D_MyVJUkaFz" version="21.3.7" type="device">
  <diagram id="C5RBs43oDa-KdzZeNtuy" name="Page-1">
    <mxGraphModel dx="1420" dy="-81" grid="1" gridSize="10" guides="1" tooltips="1" connect="1" arrows="1" fold="1" page="1" pageScale="1" pageWidth="1169" pageHeight="827" math="0" shadow="0">
      <root>
        <mxCell id="WIyWlLk6GJQsqaUBKTNV-0" />
        <mxCell id="WIyWlLk6GJQsqaUBKTNV-1" parent="WIyWlLk6GJQsqaUBKTNV-0" />
        <mxCell id="D6H2GTCvEHgJT1fH2991-160" value="" style="shape=stencil(lVnJchs3FPwaXl9hX86O8x+ushyxokguWc7y92mEhRHRw2lGN2qEBvC2fgtO8dOPxy/fH07B/Xh7ffn94a/z17fHU/zlFML5+fHh9fyGX6f4+RQ/fXt5ffjt9eXn89fL39+/jJXj1x8vf44d/r7gajZXBiq4f7Yv1f/35dcL4On8fA0o1tsKcOabADTLfgGUZE0BOp+Qu7l+DGjeUl0BwaoCREtpAaQsr9Sy+bgAYrMeBKBYWYWOwWIUgGp9lSEU80qGZnXVUvDmswB0i30B+GK1HgO6s7S6hncWhNAABLK0OXWjzGZoUmQ4BnlSt5DE+mQu7gQQB5RicT3Ae4tC4uKsRgZkdwzIyZJjQBE6SvXGlWoRAHhBYUATnhezxcYA5dvQOvm2D+YEZYQw/ewaIMINjtkdA7yQwScrgX07Cy0NAIWbsyJcw1dr6wkhSVLy3dKqJXi3E+GGC9Q1GgZlCC0Nta5ainV+uQ3IMxw32sMJClA5OaQyqfbINRoxsbMo3Dt6DtERISKmAfCrlpAckrB0BNevJ5Q4ifA2YEcCoAWl1ogLrMSKjJiEt6YtO22AJN0bWm+rpZFUqwBA62Q4pDwvQjRH6wTQQmfkq1WtYP8o7JDbpK0NkCyoE+JMBhvAT6mOqDJlBihuzX7qZBO6ySQN33Rpp1bhrblYWK8EwzkhNBJKXgOoZJnVAejrCXDvLGQogUmgaDLGfmS49zNvA1BLdQYEYbjSLEQGKG5FfOXAAMUaNVheDVe8rARG6VBYS1nXGhQPJUlvrTsyht5UxOGEREJXC6qOhm+urAFFFyWD39mhSwD+7dYAGr2AsjTK4vIhQNqxN66k3TuXjwg9HCF9RK1wNao17hiu7BL7HdfAlajAGlIpoSMnxSGVkmEjlf8ZQNAJlep3QhRmovbkDgnA+bpngKIZuDfbQRMZAqgSQFMlQpQDSJPxxwGO7dDucGvj6h5NVFOGK8wayNOqEihb8b8B8tTbUSXgVqF71y1N53bdOyezIrpzYgHcSRUbaIIYoFsUVM4kNUoBZQiUleRMKAXKndKYqK+bF3pF80x9WdXOFCKbum5EctSiBErUZTYtR02QI4CfUh01cjRCyHokgL6srgGRYTihpdENr1dCGdhUX+bYNVKU7tpujH6y4taZn7b1SdfqPDSJTsZb4Ep9DIrE/m52nVdzoiz2dxzOsPqd9avF0Ks3oU/HhVKT2XPX2Wepfb8lvk2dssvwjQvuIGdcuA8xdpCZFsbsidYr5kL3yeaV7S2cNwRar+pUkG/k9YojcubqP0jvRA72vH8TtPhenV2tV2XCrjD3U2GHw2Re74U/tG36PdfrAQbyCpVeOpX1yhMS+I/Qz1VqfB+qVmFgJF+/G+epE3CjuEowAl6JsBuQQKfKxkjWpKNQtZLAyBTEUVabsEJYrRz73OJoVN3oBaDIKWnr3BvlKBuRVueLwnXFLDy17fI9srETlm5p5q2rfK+YugXuK2qd47cjAJEpAKqZap5bndrk4xAAbgcoSobdG0PVLzF1V+Tgi5rDYr+4K9QkYDd3GlfST2iU04bQqvXPXJ0OtaorZX7rGYbTrQ4/A1ZZMI95BwldZGL7+EPjfQB+vL9rfjs/PV2eRa//z++g+HR5Q42f/wU=);lineShape=1;" parent="WIyWlLk6GJQsqaUBKTNV-1" vertex="1">
          <mxGeometry x="291.1781342482468" y="1212.3953656643694" width="18.176069462721443" height="26.012477151205076" as="geometry" />
        </mxCell>
        <mxCell id="D6H2GTCvEHgJT1fH2991-161" value="" style="shape=stencil(lVbZbhsxDPyafSVEUQf1nKb/ESBObdS1A8dtk78v3YW2Fu2dIm97cCRyhtckD2/bp9fNFMPb+XT8vvm9ez5vJ/kyxbg7bDen3dmeJnmc5OHleNp8Ox1/Hp7n99eni+Xl6cfx1+WE9xnHhaJcUDF8zF8icfn74etsv98druxjolwHe6VU1+0lk4znc6ac1gGpUkijQ5lCXgdki4AHgEi/8y6gmANlAKRA0tYBNROHEaDdybuAlojHGKo5CVhqlWIeAY04AkDr5y0yRNKwDuAQKIxBaKGGr5CRpsYUcBApjoBEFfBqv0VHQKUKgmjBK2dOZgCwEF0MVzzcR0SK0V/BQOuqlG+CCIBXyyYdhWhCCkquWja1UblGDeWrdGEXgN3J0KUwlpAyVeRSJXEJrjDBNVAZWbI7kdSaqIwJbjQIoFWVWvAAWHORmniXMgKU7sBV0AGw1JSqeFoz0MFSrTkdzCXQygxQndL2Bd1gMt0kX0FdIPcCWwCFFPU+9jqYk6hZqtW8ekBTABA/gi5dAADqwslVicKK+ywgNV+iucEZJPZ7jCEHmEvCfsolhjfYHNfRJYmQVmavg816AbkkPru5UkEe+cFumwAaQKH3rMXe+iSoz9An5mLPMC1uBuIi4op5GkeJ1QFYS7ivRYtevQOukNMc+aSAm+TF5T7o7ie0X2AsGNQlKKkzRzPTeFZvz0AotoHm7Rs6/5M76v/t7eHfQvyy2+/nffr6v1+g7dO8fMvjHw==);lineShape=1;" parent="WIyWlLk6GJQsqaUBKTNV-1" vertex="1">
          <mxGeometry x="1043.6331969787448" y="1452.3860208156989" width="8.765293672593089" height="8.851591174643545" as="geometry" />
        </mxCell>
        <mxCell id="D6H2GTCvEHgJT1fH2991-46" style="edgeStyle=orthogonalEdgeStyle;rounded=0;orthogonalLoop=1;jettySize=auto;html=1;entryX=0.43;entryY=-0.058;entryDx=0;entryDy=0;entryPerimeter=0;" parent="WIyWlLk6GJQsqaUBKTNV-1" target="D6H2GTCvEHgJT1fH2991-51" edge="1">
          <mxGeometry relative="1" as="geometry">
            <mxPoint x="415.0328881801874" y="940.505360600765" as="targetPoint" />
            <mxPoint x="415.0328881801874" y="903.4770698531149" as="sourcePoint" />
            <Array as="points">
              <mxPoint x="415.0328881801874" y="929.9258489585793" />
              <mxPoint x="114.47877217460633" y="929.9258489585793" />
            </Array>
          </mxGeometry>
        </mxCell>
        <mxCell id="D6H2GTCvEHgJT1fH2991-47" style="edgeStyle=elbowEdgeStyle;rounded=0;orthogonalLoop=1;jettySize=auto;html=1;elbow=vertical;" parent="WIyWlLk6GJQsqaUBKTNV-1" target="D6H2GTCvEHgJT1fH2991-54" edge="1">
          <mxGeometry relative="1" as="geometry">
            <mxPoint x="415.0328881801874" y="903.4770698531149" as="sourcePoint" />
            <Array as="points">
              <mxPoint x="556.2328084512659" y="929.9258489585793" />
            </Array>
          </mxGeometry>
        </mxCell>
        <mxCell id="D6H2GTCvEHgJT1fH2991-48" style="edgeStyle=orthogonalEdgeStyle;rounded=0;orthogonalLoop=1;jettySize=auto;html=1;" parent="WIyWlLk6GJQsqaUBKTNV-1" source="D6H2GTCvEHgJT1fH2991-49" edge="1">
          <mxGeometry relative="1" as="geometry">
            <mxPoint x="1030" y="972" as="targetPoint" />
            <Array as="points">
              <mxPoint x="415" y="930" />
              <mxPoint x="1030" y="930" />
            </Array>
          </mxGeometry>
        </mxCell>
        <mxCell id="D6H2GTCvEHgJT1fH2991-49" value="api" style="rounded=0;whiteSpace=wrap;html=1;" parent="WIyWlLk6GJQsqaUBKTNV-1" vertex="1">
          <mxGeometry x="360" y="860" width="110" height="43.48" as="geometry" />
        </mxCell>
        <mxCell id="D6H2GTCvEHgJT1fH2991-108" style="edgeStyle=orthogonalEdgeStyle;rounded=0;orthogonalLoop=1;jettySize=auto;html=1;" parent="WIyWlLk6GJQsqaUBKTNV-1" source="D6H2GTCvEHgJT1fH2991-51" edge="1">
          <mxGeometry relative="1" as="geometry">
            <mxPoint x="266.0394658162249" y="1167.9648609077599" as="targetPoint" />
            <Array as="points">
              <mxPoint x="122.77655969703012" y="1132.8257686676427" />
              <mxPoint x="266.0394658162249" y="1132.8257686676427" />
            </Array>
          </mxGeometry>
        </mxCell>
        <mxCell id="D6H2GTCvEHgJT1fH2991-51" value="src" style="rounded=0;whiteSpace=wrap;html=1;" parent="WIyWlLk6GJQsqaUBKTNV-1" vertex="1">
          <mxGeometry x="62.03308750249153" y="972.2438955273225" width="121.02850308949573" height="63.47706985311482" as="geometry" />
        </mxCell>
        <mxCell id="D6H2GTCvEHgJT1fH2991-52" value="&lt;font style=&quot;font-size: 18px;&quot;&gt;index.js&lt;/font&gt;" style="ellipse;whiteSpace=wrap;html=1;fillColor=#d80073;fontColor=#ffffff;strokeColor=#A50040;" parent="WIyWlLk6GJQsqaUBKTNV-1" vertex="1">
          <mxGeometry x="354.5186366354395" y="961.6643838851368" width="121.02850308949573" height="84.63609313748641" as="geometry" />
        </mxCell>
        <mxCell id="D6H2GTCvEHgJT1fH2991-53" value="" style="edgeStyle=elbowEdgeStyle;rounded=0;orthogonalLoop=1;jettySize=auto;html=1;" parent="WIyWlLk6GJQsqaUBKTNV-1" source="D6H2GTCvEHgJT1fH2991-49" target="D6H2GTCvEHgJT1fH2991-52" edge="1">
          <mxGeometry relative="1" as="geometry" />
        </mxCell>
        <mxCell id="D6H2GTCvEHgJT1fH2991-54" value="package.json" style="ellipse;whiteSpace=wrap;html=1;" parent="WIyWlLk6GJQsqaUBKTNV-1" vertex="1">
          <mxGeometry x="887.22" y="972.24" width="100.86" height="51.74" as="geometry" />
        </mxCell>
        <mxCell id="D6H2GTCvEHgJT1fH2991-55" value=".env" style="ellipse;whiteSpace=wrap;html=1;" parent="WIyWlLk6GJQsqaUBKTNV-1" vertex="1">
          <mxGeometry x="1016.0498146302572" y="977.1438955273225" width="50.42854295395656" height="42.318046568743206" as="geometry" />
        </mxCell>
        <mxCell id="D6H2GTCvEHgJT1fH2991-57" style="edgeStyle=orthogonalEdgeStyle;rounded=0;orthogonalLoop=1;jettySize=auto;html=1;" parent="WIyWlLk6GJQsqaUBKTNV-1" source="D6H2GTCvEHgJT1fH2991-58" edge="1">
          <mxGeometry relative="1" as="geometry">
            <mxPoint x="71.20191349412" y="1437.3645680819914" as="targetPoint" />
            <Array as="points">
              <mxPoint x="71.20191349412" y="1437.3645680819914" />
            </Array>
          </mxGeometry>
        </mxCell>
        <mxCell id="D6H2GTCvEHgJT1fH2991-58" value="models" style="rounded=0;whiteSpace=wrap;html=1;" parent="WIyWlLk6GJQsqaUBKTNV-1" vertex="1">
          <mxGeometry x="31.775961730117636" y="1171.522221697445" width="121.02850308949573" height="63.47706985311482" as="geometry" />
        </mxCell>
        <mxCell id="D6H2GTCvEHgJT1fH2991-59" style="edgeStyle=elbowEdgeStyle;rounded=0;orthogonalLoop=1;jettySize=auto;html=1;entryX=0.75;entryY=0;entryDx=0;entryDy=0;elbow=vertical;" parent="WIyWlLk6GJQsqaUBKTNV-1" source="D6H2GTCvEHgJT1fH2991-51" target="D6H2GTCvEHgJT1fH2991-58" edge="1">
          <mxGeometry relative="1" as="geometry" />
        </mxCell>
        <mxCell id="D6H2GTCvEHgJT1fH2991-62" style="edgeStyle=orthogonalEdgeStyle;rounded=0;orthogonalLoop=1;jettySize=auto;html=1;" parent="WIyWlLk6GJQsqaUBKTNV-1" source="D6H2GTCvEHgJT1fH2991-63" edge="1">
          <mxGeometry relative="1" as="geometry">
            <mxPoint x="460.8770181383297" y="1437.3645680819914" as="targetPoint" />
            <Array as="points">
              <mxPoint x="687" y="1402" />
              <mxPoint x="461" y="1402" />
            </Array>
          </mxGeometry>
        </mxCell>
        <mxCell id="D6H2GTCvEHgJT1fH2991-63" value="routes" style="rounded=0;whiteSpace=wrap;html=1;" parent="WIyWlLk6GJQsqaUBKTNV-1" vertex="1">
          <mxGeometry x="626.832768586805" y="1171.522221697445" width="121.02850308949573" height="63.47706985311482" as="geometry" />
        </mxCell>
        <mxCell id="D6H2GTCvEHgJT1fH2991-64" style="edgeStyle=orthogonalEdgeStyle;rounded=0;orthogonalLoop=1;jettySize=auto;html=1;entryX=0.5;entryY=0;entryDx=0;entryDy=0;" parent="WIyWlLk6GJQsqaUBKTNV-1" source="D6H2GTCvEHgJT1fH2991-51" target="D6H2GTCvEHgJT1fH2991-63" edge="1">
          <mxGeometry relative="1" as="geometry">
            <Array as="points">
              <mxPoint x="122.77655969703012" y="1132.8257686676427" />
              <mxPoint x="687.8054614311342" y="1132.8257686676427" />
            </Array>
          </mxGeometry>
        </mxCell>
        <mxCell id="D6H2GTCvEHgJT1fH2991-65" style="edgeStyle=orthogonalEdgeStyle;rounded=0;orthogonalLoop=1;jettySize=auto;html=1;" parent="WIyWlLk6GJQsqaUBKTNV-1" source="D6H2GTCvEHgJT1fH2991-67" edge="1">
          <mxGeometry relative="1" as="geometry">
            <mxPoint x="839.0910902930037" y="1437.3645680819914" as="targetPoint" />
            <Array as="points">
              <mxPoint x="839.0910902930037" y="1402.2254758418742" />
              <mxPoint x="839.0910902930037" y="1437.3645680819914" />
            </Array>
          </mxGeometry>
        </mxCell>
        <mxCell id="D6H2GTCvEHgJT1fH2991-67" value="handlers" style="rounded=0;whiteSpace=wrap;html=1;" parent="WIyWlLk6GJQsqaUBKTNV-1" vertex="1">
          <mxGeometry x="778.1183974486746" y="1171.522221697445" width="121.02850308949573" height="63.47706985311482" as="geometry" />
        </mxCell>
        <mxCell id="D6H2GTCvEHgJT1fH2991-68" style="edgeStyle=orthogonalEdgeStyle;rounded=0;orthogonalLoop=1;jettySize=auto;html=1;" parent="WIyWlLk6GJQsqaUBKTNV-1" source="D6H2GTCvEHgJT1fH2991-51" target="D6H2GTCvEHgJT1fH2991-67" edge="1">
          <mxGeometry relative="1" as="geometry">
            <Array as="points">
              <mxPoint x="122.77655969703012" y="1132.8257686676427" />
              <mxPoint x="839.0910902930037" y="1132.8257686676427" />
            </Array>
          </mxGeometry>
        </mxCell>
        <mxCell id="D6H2GTCvEHgJT1fH2991-69" style="edgeStyle=orthogonalEdgeStyle;rounded=0;orthogonalLoop=1;jettySize=auto;html=1;" parent="WIyWlLk6GJQsqaUBKTNV-1" source="D6H2GTCvEHgJT1fH2991-71" edge="1">
          <mxGeometry relative="1" as="geometry">
            <mxPoint x="1056.8507075941798" y="1437.3645680819914" as="targetPoint" />
            <Array as="points">
              <mxPoint x="1056.8507075941798" y="1437.3645680819914" />
            </Array>
          </mxGeometry>
        </mxCell>
        <mxCell id="D6H2GTCvEHgJT1fH2991-71" value="controllers" style="rounded=0;whiteSpace=wrap;html=1;" parent="WIyWlLk6GJQsqaUBKTNV-1" vertex="1">
          <mxGeometry x="988.0845126569664" y="1171.522221697445" width="121.02850308949573" height="63.47706985311482" as="geometry" />
        </mxCell>
        <mxCell id="D6H2GTCvEHgJT1fH2991-72" style="edgeStyle=orthogonalEdgeStyle;rounded=0;orthogonalLoop=1;jettySize=auto;html=1;entryX=0.38;entryY=-0.008;entryDx=0;entryDy=0;entryPerimeter=0;" parent="WIyWlLk6GJQsqaUBKTNV-1" source="D6H2GTCvEHgJT1fH2991-51" target="D6H2GTCvEHgJT1fH2991-71" edge="1">
          <mxGeometry relative="1" as="geometry">
            <Array as="points">
              <mxPoint x="122.77655969703012" y="1132.8257686676427" />
              <mxPoint x="1033.9286426151086" y="1132.8257686676427" />
            </Array>
          </mxGeometry>
        </mxCell>
        <mxCell id="D6H2GTCvEHgJT1fH2991-73" value="&lt;font style=&quot;font-size: 18px;&quot;&gt;db.js&lt;/font&gt;" style="ellipse;whiteSpace=wrap;html=1;fillColor=#60a917;fontColor=#ffffff;strokeColor=#2D7600;" parent="WIyWlLk6GJQsqaUBKTNV-1" vertex="1">
          <mxGeometry x="205.9836555710584" y="1171.5195768195342" width="121.02850308949573" height="84.63609313748641" as="geometry" />
        </mxCell>
        <mxCell id="D6H2GTCvEHgJT1fH2991-74" value="&lt;font style=&quot;font-size: 18px;&quot;&gt;app.js&lt;/font&gt;" style="ellipse;whiteSpace=wrap;html=1;fillColor=#6a00ff;fontColor=#ffffff;strokeColor=#3700CC;" parent="WIyWlLk6GJQsqaUBKTNV-1" vertex="1">
          <mxGeometry x="465.46143113414394" y="1171.5195768195342" width="121.02850308949573" height="84.63609313748641" as="geometry" />
        </mxCell>
        <mxCell id="D6H2GTCvEHgJT1fH2991-75" style="edgeStyle=orthogonalEdgeStyle;rounded=0;orthogonalLoop=1;jettySize=auto;html=1;" parent="WIyWlLk6GJQsqaUBKTNV-1" source="D6H2GTCvEHgJT1fH2991-51" edge="1">
          <mxGeometry relative="1" as="geometry">
            <mxPoint x="526.2049033286825" y="1167.9648609077599" as="targetPoint" />
            <Array as="points">
              <mxPoint x="122.77655969703012" y="1132.8257686676427" />
              <mxPoint x="526.2049033286825" y="1132.8257686676427" />
            </Array>
          </mxGeometry>
        </mxCell>
        <mxCell id="D6H2GTCvEHgJT1fH2991-76" value="&lt;font style=&quot;font-size: 18px;&quot;&gt;Videogame.js&lt;/font&gt;" style="ellipse;whiteSpace=wrap;html=1;fillColor=#60a917;fontColor=#ffffff;strokeColor=#2D7600;" parent="WIyWlLk6GJQsqaUBKTNV-1" vertex="1">
          <mxGeometry x="10" y="1449.08" width="160" height="52.9" as="geometry" />
        </mxCell>
        <mxCell id="D6H2GTCvEHgJT1fH2991-78" value="&lt;font style=&quot;font-size: 18px;&quot;&gt;indexRouter.js&lt;/font&gt;" style="ellipse;whiteSpace=wrap;html=1;fillColor=#6a00ff;fontColor=#ffffff;strokeColor=#3700CC;" parent="WIyWlLk6GJQsqaUBKTNV-1" vertex="1">
          <mxGeometry x="370" y="1450" width="134.72" height="51.97" as="geometry" />
        </mxCell>
        <mxCell id="D6H2GTCvEHgJT1fH2991-81" value="&lt;font style=&quot;font-size: 18px;&quot;&gt;handlers.js&lt;/font&gt;" style="ellipse;whiteSpace=wrap;html=1;fillColor=#6a00ff;fontColor=#ffffff;strokeColor=#3700CC;" parent="WIyWlLk6GJQsqaUBKTNV-1" vertex="1">
          <mxGeometry x="798.29" y="1450" width="121.71" height="51.97" as="geometry" />
        </mxCell>
        <mxCell id="D6H2GTCvEHgJT1fH2991-83" value="&lt;font style=&quot;font-size: 18px;&quot;&gt;controllersIndex.js&lt;/font&gt;" style="ellipse;whiteSpace=wrap;html=1;fillColor=#6a00ff;fontColor=#ffffff;strokeColor=#3700CC;" parent="WIyWlLk6GJQsqaUBKTNV-1" vertex="1">
          <mxGeometry x="1010" y="1438.17" width="150" height="51.97" as="geometry" />
        </mxCell>
        <mxCell id="D6H2GTCvEHgJT1fH2991-93" value="&lt;font style=&quot;font-size: 10px;&quot;&gt;require: &lt;font color=&quot;#a680b8&quot;&gt;sequelize,&amp;nbsp;&lt;/font&gt;&lt;font color=&quot;#ff3333&quot;&gt;app&lt;/font&gt;&lt;br&gt;&lt;br&gt;&lt;span style=&quot;color: rgb(166, 128, 184);&quot;&gt;sequelize&lt;/span&gt;&lt;span style=&quot;background-color: initial;&quot;&gt;.sync({force:false})&lt;br&gt;.then(()=&amp;gt;{&lt;font color=&quot;#ff0000&quot;&gt;app&lt;/font&gt;.listen(3001})})&lt;/span&gt;&lt;br&gt;&lt;/font&gt;" style="text;strokeColor=none;align=left;fillColor=none;html=1;verticalAlign=middle;whiteSpace=wrap;rounded=0;" parent="WIyWlLk6GJQsqaUBKTNV-1" vertex="1">
          <mxGeometry x="343.05760414590395" y="1062.5475841874086" width="175.12457644010368" height="46.85212298682284" as="geometry" />
        </mxCell>
        <mxCell id="D6H2GTCvEHgJT1fH2991-94" value="&lt;font style=&quot;font-size: 10px;&quot;&gt;dependencies:&lt;br&gt;&lt;font color=&quot;#666600&quot;&gt;express, morgan, nodemon,&lt;/font&gt;&lt;br&gt;&lt;font color=&quot;#ffff33&quot;&gt;sequelize, pg, pg-hstore,&amp;nbsp;dotenv, axios&lt;/font&gt;&lt;br&gt;&lt;br&gt;scripts: start: &lt;font color=&quot;#666600&quot;&gt;nodemon&lt;/font&gt;&lt;br&gt;&lt;/font&gt;" style="text;strokeColor=none;align=left;fillColor=none;html=1;verticalAlign=middle;whiteSpace=wrap;rounded=0;" parent="WIyWlLk6GJQsqaUBKTNV-1" vertex="1">
          <mxGeometry x="782.7027685868048" y="1010.0045534407029" width="240.68168228024717" height="58.56515373352855" as="geometry" />
        </mxCell>
        <mxCell id="D6H2GTCvEHgJT1fH2991-96" value="&lt;font style=&quot;font-size: 10px;&quot;&gt;require:&amp;nbsp;&lt;span style=&quot;background-color: initial;&quot;&gt;&lt;font color=&quot;#ffff33&quot;&gt;Sequelize,&amp;nbsp;dotenv,&amp;nbsp;&lt;/font&gt;&lt;font color=&quot;#66cc00&quot;&gt;models&lt;br&gt;&lt;/font&gt;&lt;br&gt;&lt;font color=&quot;#a680b8&quot;&gt;sequelize&lt;/font&gt; = new Sequelize()&lt;br&gt;&lt;/span&gt;&lt;font color=&quot;#66cc00&quot;&gt;models&lt;/font&gt;(sequelize)&lt;br&gt;associations: Videogame - Genre&lt;br&gt;&lt;br&gt;exports= &lt;font color=&quot;#a680b8&quot;&gt;sequelize&lt;/font&gt;, &lt;font color=&quot;#ffcc99&quot;&gt;...sequelize.models&lt;/font&gt;&lt;br&gt;&lt;/font&gt;" style="text;strokeColor=none;align=left;fillColor=none;html=1;verticalAlign=middle;whiteSpace=wrap;rounded=0;" parent="WIyWlLk6GJQsqaUBKTNV-1" vertex="1">
          <mxGeometry x="183.0615905919873" y="1297.9795021961932" width="240.68168228024717" height="46.85212298682284" as="geometry" />
        </mxCell>
        <mxCell id="D6H2GTCvEHgJT1fH2991-98" value="&lt;font style=&quot;font-size: 10px;&quot;&gt;require:&amp;nbsp;&lt;span style=&quot;background-color: initial;&quot;&gt;&lt;font color=&quot;#ffff33&quot;&gt;Datatypes&lt;/font&gt;&lt;br&gt;&lt;br&gt;&lt;/span&gt;&lt;font color=&quot;#66cc00&quot;&gt;module.exports&lt;/font&gt; = {(sequelize) =&amp;gt; { sequelize.define(&quot;Videogame&quot;,&amp;nbsp;&lt;br&gt;{id: {type: DataTypes.UUID},&lt;br&gt;name,background_image,&amp;nbsp;platforms, released, rating, description&lt;span style=&quot;background-color: initial;&quot;&gt;}, {timestamps: false})}&lt;/span&gt;&lt;br&gt;&lt;br&gt;&lt;/font&gt;" style="text;strokeColor=none;align=left;fillColor=none;html=1;verticalAlign=middle;whiteSpace=wrap;rounded=0;" parent="WIyWlLk6GJQsqaUBKTNV-1" vertex="1">
          <mxGeometry x="10" y="1522.869692532943" width="194.83755232210484" height="117.1303074670571" as="geometry" />
        </mxCell>
        <mxCell id="wy76TVlNb48Dznf8ciol-31" style="edgeStyle=orthogonalEdgeStyle;rounded=0;orthogonalLoop=1;jettySize=auto;html=1;entryX=0.786;entryY=0;entryDx=0;entryDy=0;entryPerimeter=0;" edge="1" parent="WIyWlLk6GJQsqaUBKTNV-1" source="D6H2GTCvEHgJT1fH2991-100" target="wy76TVlNb48Dznf8ciol-29">
          <mxGeometry relative="1" as="geometry" />
        </mxCell>
        <mxCell id="wy76TVlNb48Dznf8ciol-32" style="edgeStyle=orthogonalEdgeStyle;rounded=0;orthogonalLoop=1;jettySize=auto;html=1;entryX=0.5;entryY=0;entryDx=0;entryDy=0;" edge="1" parent="WIyWlLk6GJQsqaUBKTNV-1" source="D6H2GTCvEHgJT1fH2991-100" target="wy76TVlNb48Dznf8ciol-23">
          <mxGeometry relative="1" as="geometry">
            <Array as="points">
              <mxPoint x="1088" y="1850" />
              <mxPoint x="800" y="1850" />
            </Array>
          </mxGeometry>
        </mxCell>
        <mxCell id="wy76TVlNb48Dznf8ciol-73" style="edgeStyle=orthogonalEdgeStyle;rounded=0;orthogonalLoop=1;jettySize=auto;html=1;" edge="1" parent="WIyWlLk6GJQsqaUBKTNV-1" source="D6H2GTCvEHgJT1fH2991-100" target="wy76TVlNb48Dznf8ciol-20">
          <mxGeometry relative="1" as="geometry">
            <Array as="points">
              <mxPoint x="1088" y="1850" />
              <mxPoint x="555" y="1850" />
            </Array>
          </mxGeometry>
        </mxCell>
        <mxCell id="wy76TVlNb48Dznf8ciol-74" style="edgeStyle=orthogonalEdgeStyle;rounded=0;orthogonalLoop=1;jettySize=auto;html=1;" edge="1" parent="WIyWlLk6GJQsqaUBKTNV-1" source="D6H2GTCvEHgJT1fH2991-100" target="wy76TVlNb48Dznf8ciol-16">
          <mxGeometry relative="1" as="geometry">
            <Array as="points">
              <mxPoint x="1088" y="1850" />
              <mxPoint x="353" y="1850" />
            </Array>
          </mxGeometry>
        </mxCell>
        <mxCell id="wy76TVlNb48Dznf8ciol-75" style="edgeStyle=orthogonalEdgeStyle;rounded=0;orthogonalLoop=1;jettySize=auto;html=1;entryX=0.5;entryY=0;entryDx=0;entryDy=0;" edge="1" parent="WIyWlLk6GJQsqaUBKTNV-1" source="D6H2GTCvEHgJT1fH2991-100" target="wy76TVlNb48Dznf8ciol-2">
          <mxGeometry relative="1" as="geometry">
            <Array as="points">
              <mxPoint x="1088" y="1850" />
              <mxPoint x="133" y="1850" />
            </Array>
          </mxGeometry>
        </mxCell>
        <mxCell id="D6H2GTCvEHgJT1fH2991-100" value="&lt;font style=&quot;font-size: 10px;&quot;&gt;require and exports:&amp;nbsp;&lt;font color=&quot;#7ea6e0&quot;&gt;getAllVg, getVgByName, getVgById, getGenres, postVg&lt;/font&gt;&lt;br&gt;&lt;/font&gt;" style="text;strokeColor=none;align=left;fillColor=none;html=1;verticalAlign=middle;whiteSpace=wrap;rounded=0;" parent="WIyWlLk6GJQsqaUBKTNV-1" vertex="1">
          <mxGeometry x="1016.0494319314332" y="1523.1518448023426" width="143.95056806856687" height="46.85212298682284" as="geometry" />
        </mxCell>
        <mxCell id="D6H2GTCvEHgJT1fH2991-101" value="&lt;font style=&quot;font-size: 10px;&quot;&gt;require:&amp;nbsp;&lt;font style=&quot;background-color: rgb(26, 26, 26);&quot;&gt;&lt;font color=&quot;#666600&quot;&gt;express, morgan, &lt;/font&gt;&lt;font color=&quot;#00cccc&quot;&gt;router&lt;/font&gt;&lt;br&gt;&lt;/font&gt;&lt;br&gt;&lt;font color=&quot;#ff0000&quot;&gt;app&lt;/font&gt;&amp;nbsp;= &lt;font color=&quot;#666600&quot;&gt;express&lt;/font&gt;()&lt;br&gt;middlewares: &lt;br&gt;cors configuration&amp;nbsp;&lt;font color=&quot;#ff0000&quot;&gt;&lt;br&gt;app&lt;/font&gt;.use(&quot;/&quot;, router)&lt;br&gt;&lt;br&gt;exports = &lt;font color=&quot;#ff3333&quot;&gt;app&lt;/font&gt;&lt;br&gt;&lt;/font&gt;" style="text;strokeColor=none;align=left;fillColor=none;html=1;verticalAlign=middle;whiteSpace=wrap;rounded=0;" parent="WIyWlLk6GJQsqaUBKTNV-1" vertex="1">
          <mxGeometry x="449.4159856487941" y="1285.095168374817" width="197.5882001195934" height="46.85212298682284" as="geometry" />
        </mxCell>
        <mxCell id="D6H2GTCvEHgJT1fH2991-102" value="&lt;font style=&quot;font-size: 10px;&quot;&gt;require:&amp;nbsp;&lt;font style=&quot;background-color: rgb(26, 26, 26);&quot;&gt;&lt;font color=&quot;#ffffff&quot;&gt;Router,&amp;nbsp;&lt;/font&gt;&lt;font color=&quot;#ff66ff&quot;&gt;handleGetVg, handleGetVgById, handleGetGenres, handlePostVg&lt;/font&gt;&lt;br&gt;&lt;/font&gt;&lt;br&gt;&lt;font color=&quot;#00cccc&quot;&gt;router&lt;/font&gt; = Router()&amp;nbsp;&lt;br&gt;&lt;font color=&quot;#00cccc&quot;&gt;router&lt;/font&gt;.get(&quot;/videogames/:idVideogame&quot;, &lt;font color=&quot;#ff66ff&quot;&gt;handleGetVgById&lt;/font&gt;)&lt;br&gt;&lt;font color=&quot;#00cccc&quot;&gt;router&lt;/font&gt;.get(&quot;/videogames/&quot;,&amp;nbsp;&lt;font color=&quot;#ff66ff&quot;&gt;handleGetVg&lt;/font&gt;)&lt;br&gt;&lt;font color=&quot;#00cccc&quot;&gt;router&lt;/font&gt;.get(&quot;/genres&quot;,&amp;nbsp;&lt;font color=&quot;#ff66ff&quot;&gt;handleGetGenres&lt;/font&gt;)&lt;br&gt;&lt;font color=&quot;#00cccc&quot;&gt;router&lt;/font&gt;.post(&quot;/videogames&quot;,&amp;nbsp;&lt;font color=&quot;#ff66ff&quot;&gt;handlePostVg&lt;/font&gt;)&lt;br&gt;&lt;br&gt;exports = &lt;font color=&quot;#00cccc&quot;&gt;router&lt;/font&gt;&lt;br&gt;&lt;/font&gt;" style="text;strokeColor=none;align=left;fillColor=none;html=1;verticalAlign=middle;whiteSpace=wrap;rounded=0;" parent="WIyWlLk6GJQsqaUBKTNV-1" vertex="1">
          <mxGeometry x="354.52" y="1570" width="187" height="46.85" as="geometry" />
        </mxCell>
        <mxCell id="D6H2GTCvEHgJT1fH2991-104" value="&lt;font style=&quot;font-size: 10px;&quot;&gt;require:&amp;nbsp;&lt;font color=&quot;#7ea6e0&quot;&gt;&lt;span style=&quot;background-color: rgb(26, 26, 26);&quot;&gt;getAllVg, getVgByName, getVgById, getGenres, postVg&lt;/span&gt;&lt;br&gt;&lt;/font&gt;&lt;br&gt;&lt;font style=&quot;background-color: rgb(26, 26, 26);&quot;&gt;&lt;font color=&quot;#ff66ff&quot;&gt;handleGetVg&lt;/font&gt;&amp;nbsp;= async(req,res) =&amp;gt; {&lt;br&gt;vg = req.query.name? await&amp;nbsp;&lt;font color=&quot;#7ea6e0&quot;&gt;getVgByName&lt;/font&gt;(name) : getAllVg()&lt;br&gt;res.status(200).send(vg)};&lt;font color=&quot;#ff66ff&quot;&gt;&lt;br&gt;handleGetVgById&lt;/font&gt;&amp;nbsp;-&amp;gt;&amp;nbsp;id = req.params.&amp;nbsp;&lt;font color=&quot;#7ea6e0&quot;&gt;getVgById&lt;/font&gt;()&lt;font color=&quot;#ff66ff&quot;&gt;&lt;br&gt;handleGetGenres&lt;/font&gt;&amp;nbsp;-&amp;gt;&amp;nbsp;&lt;font color=&quot;#7ea6e0&quot;&gt;getGenres&lt;/font&gt;()&lt;font color=&quot;#ff66ff&quot;&gt;&lt;br&gt;handlePostVg&lt;/font&gt;&amp;nbsp;-&amp;gt; {name, ... } = req.body.&amp;nbsp;&lt;font color=&quot;#7ea6e0&quot;&gt;postVg&lt;/font&gt;()&amp;nbsp;&lt;font color=&quot;#ff66ff&quot;&gt;&lt;br&gt;&lt;/font&gt;&lt;/font&gt;&lt;br&gt;exports =&amp;nbsp;&lt;font style=&quot;background-color: rgb(26, 26, 26);&quot;&gt;&lt;font color=&quot;#ff66ff&quot;&gt;handleGetVg, handleGetVgById, handleGetGenres, handlePostVg&lt;/font&gt;&lt;/font&gt;&lt;br&gt;&lt;/font&gt;" style="text;strokeColor=none;align=left;fillColor=none;html=1;verticalAlign=middle;whiteSpace=wrap;rounded=0;" parent="WIyWlLk6GJQsqaUBKTNV-1" vertex="1">
          <mxGeometry x="760" y="1589.63" width="241.83" height="46.85" as="geometry" />
        </mxCell>
        <mxCell id="D6H2GTCvEHgJT1fH2991-133" value="" style="shape=stencil(lZtJjhxHDEVP09tAzMNalu8hQJLVsCwZkjzd3gw0IqvzR9Yre9cDmRkDh89P5lN68/3Tu98/PEX//ce3r79++Ov5/Y9PT+mnpxifv3z68O35h/30lN4+pTcfv3778Mu3r398ef/y++/vpuT86bevf84n/P2iN4bLfWpF/8/LX7xrL3/4+UX+8/OX1/LdtaTyA+SbK0Xkhwf56kI8yQfnI8gXF6vKN5DPLiWRD/T85FJTeTqf6FIR+UjPDy55laf1exezyCd4fh8u6H4TPL9353X9mZ5f3egqT88vbuh5lgTy2Q21hwL21pPrej4V7qtH1/T8WwH5oPYcXA8g711W++xwPs38UdczSL67dN5vRPtvTe0ton22ussnOP9W1r9v8iWDfF7/vsnTfbW0ws1NvsN9mbzYs/0B7K1FPf+E/t7MXJrIJ1qPV/tJuN86XDr7V3a+gnxf4fsmH1k+VJHPtJ623PUm38D+q8WHIvID7MHkUzjJFxfA3mpxdYh8hvM3ea/Pb3Q+li/O51Odp/XYdWaRz7Tf6MYQeYonJh/P9tbQf6uF4yHylc7H0vl5/WYgtB7vvBf5AvGnDM3Xw3k4n2KPiyJfYL+laXwIHgFEqXoB4XDRewpBMp5BAoA0pWwQgnNSyXpnIa4ofK2QNIiawgCrLhaUJSuZ3ZJCULcPeQXKawW/7YEdOVvikzfU5arXCl09M7Dr5LZBs4ZYIm+5L3SX6Q1Fk3Ew+AXekPNmGgPTfU4ruh3pz2P8ylHvYQIoML4clv8eCpE37V09e+hMgeDSaawIdChkxLBpqzksaCdI4qm5Lkuqy7quFaqizBkmWcHLkrrrYEupaNRIHgN3yhsQCYik0pZ5UuQlxVWJHQqMFUwhnHOn7YqSv61YkrndTKA3WOiVJXVXIcxYNhDTMHOkfGLXNEQhIOAxBX/2B3OpAaYxE/L5HqaX05LqqpgOhbJ2da1g/z5bq4W2ACnLFLwodLSluBmfhWeyJXP5dg7GljEi7SEp7pw5Cfxh1hHnU7Ks1+kNUZGJJWIKxrdK91CoroB536iMQ8ECD1mr1/xgcMjDxVk2EDRveIuQgCnEs8cZAKRjtYymeDWuiuaegviDQd4BpjGTrLyhYBCYaVwgcUVOwRTE46xKwT0UTYpWZpG1Gthp55RldRxBOINTklCssKTYagrhbEvtYDKuFeJa8aFQVvC8VggKf1rD0jZspWrrzPVtpYPHwDc0KvWAz+8unm+tJ3ToptROz1iLtfW0Q75g8qkr+R3ylWsrLd26gQyIL8UNeX5HPygLzR7yA22uLNR1lFZHMXdHPmSVr4Sf1Qcm2Qnnn/W+BnNfWWuSwVzTBrZHQi4lL4D2Sp6fL1TTyMtir9GO3q/Jd4KEK+Qc8gW53K1WMHniHpNS46Mi95sUA4+DDL5Of6s8O+TbIkfvyAu1Y/KDYI6CltGxRg0LKR7yXHz5nVpgh/Ga+R6+QOCyyXc4UK/c/jhC8B15vbCBZM3G7YyDjbwnX1U+4vmEofIE3r1yy3bBAwKoXzXcK3nKqX6d9n+UD9v5cxEYFP7N9aN82c4/4HpKV3kqrK/kCfBuXKLJUwLY9zsenWdUeXL47b4eO2TdXwAb8Eq+T3k0uN2gCdH4LWMMpB2uHJIQzZXDEyLwW4YfyHb7DUH0BxemAdEcBtfz/+TDdj4NA2hQRDkzEjqAktEVM3ZYq30lT4ggbgG0IKUZt/Mv2H2KC8++RhycsavKUwIwRCD+krAgTlpxjweU1ea/8QECkmbw4AojaxE2uNuftaQa3DvIFwidupd5qwAGtxq2CqNjAijKxHZGZFXv1yoeqjmrVpCdu3Ntez4j6KaI2CpCiv9dEaJVnBRvt+EJq2ip4hxKLlrFTM8PW7fNanJqeszO0dkDGlPhYeP/G3d6QlIQ2iLmgJA1acweN+0ha9quA+uwUBTHVS6cJyEkb6hMm238/61PfI/UktqqMhs5aTN5Q1xXeU9BYkXlyZ3ZapJOtUdWeJKL5yWVjrNZlo4lvJSGtjQBmhCkdTXt7lGwUqKXguMaczrmfA+F5ylu4yiveGdcUlLzLjxhNqlwmcAYTOfnhTkOhY43PYkYUahYV5qC5PFcME9Z4BZWOGfuMLSthxGxFLVQnLY+DLnojMVna00DsWAcSiOnznSGV/4p8bHOhtzWD6NhthQVb6aMsTUlpSjsEdhxS+pxKSAiTBsksWOgyJfK1oG2HEenVBUkmbHQCFlqOiJi5kijA3av0ludDS/a9GZLk7sjZs+vazoUEr7BjFmQvAUeQm6mIGMoszjhxv7YJgGoFsxpq5YH0tXm8l3mJTrmuFyU4Ls1i64V6vYGu3taUlsE5qFQEVBaJNXx0cKbHtt8KpOyMxsEVSAHsnwjSMAgF226HLM8hwLz3LMxug0cEe9SsiIBUyDizrKyFMKGZKlVMvP+poCn1NTjBrbpZ+dVoDoyEaVrO/lBb2XoLFBDrrt6jdyNK6UNKnEhMNu6OpdIGX2fG6xIJc65REFiy0au5dNKAjd5wjD7XCUD7onHBWBg1jF56dgyczELBH0+AZ66jQ0mZAZnxSKZnOd++4Ze8LsAK6G2uWJKUM1rszMiE9S24YiIDt+iUimRe69R7ysic2FVrDT/It5X26iaiEyBldVR5/DxfKruN+Bc3uy963cZNIvYujYjA5/nFq8C8gR9663w/E7fegEBmZEelbgIiHx70sGugPGhb2DFoz/2ov7lkYmb37kEkcdZhabfxXiMn30oYPRYWo/Nfz2OdY6g9sMkzYgKwhldjqT5xWP8n61x/Y6Myr9Rlnvf5Mk+R9VWwAPmrmrV7nHufTYKdP3EYV19N0fx5+q7PLL/2TjS/eJ3cxv54zFfzM6drh/PZ+z+gt/Nbbjb87yU33phHgvdSwW06IsVUXF/tWMiKa9OlBDB1Y0Rw3JlETQU97+/BH0obz/cPjv9+Pz588tXq6//r5+p2p9ePnFNb/8F);lineShape=1;" parent="WIyWlLk6GJQsqaUBKTNV-1" vertex="1">
          <mxGeometry x="286.764105525113" y="1025.2145452606114" width="116.8488964021435" height="162.42845497587746" as="geometry" />
        </mxCell>
        <mxCell id="D6H2GTCvEHgJT1fH2991-134" value="" style="shape=stencil(lVjZUhtBDPwav6pmNPczSf6DKkxwhQAF5Pr79MY1sNJ6O8WbMdJYR0vdM4d09XJ3/XQ8aHh5fX78dvx1unm9O6RPB9XTw93x+fSKT4f0+ZCubh+fj1+fH3883Jz/frpeLJdP3x9/Lif8PvtpkayLl4Y/52+CpPbviy9n+/vTw8o+RRnWPkks+/ZZRZOxbxIyse+i9vwhMezblyLajX2M0nTfoapk55BpRHVIbdahio59h1aku19oMkhNOyKu1mFIJkUdQXoxDhqlduJQpTqHLDXuO8QQJATb5yCVNGJ0KbbRCVmTMg1EkI1DzhKJQ+/SbCNKlJxoXbPNoQwJpBGtzX9Ph5okMDANUVvXhipV4pBnTd4cshSG7z7Hazr0II05qAybdK8S2IR2j+8RpZA+oE3NdhrwGiSk1Dcj9w6vvS2jNonRJJK6ap/gXCXRCDYUE2Eb0TOdaixKtXBtfR5x2SH5gWhROgsJSW/Q18hmWraEG4gqjYSEPRQsmArgSvAd02ZG0+zM5cb5AcK67+wHJNvzle9WkJNFEvZYIudvtpiqRLL3cL7tGWrcyWKNkmz8KDGzx3C68yuNP2/siyQyzJgS9faBEcOs9sq+MMhtBhMJVLJSo3rmiZ0KDEAu25DQFEaGW4yiymww4xakWToLKW7otvLBDBNkbw59NuYyU02WWdmziKAwNud3knKalLGyZ2McPeyQcCfrN3gKQYSBjpnbQ2gZPz+6FgcqX4IMN5ZQJ8Re51CtUN3I2GQvajE2TBxVv7aWsWRSZxLweuypXPP0t2hUwjUfdkDKzYaU3pT3ZYfmCRZXAaZDoC+7LSqUSSOgSCBYK5tBf4NMGSJ2MALBDlJWKFg3Z02n4LvsMCZsVmqtMoc61+1KrbFJyDjPVgkqtzCH7CkWKpdhCZIgbnULyaG0KdvfylqoqoAIdvsUKpfeqHRut5VuYTTVxlyfa93CFnCeN7TV7SUSePfmaSrxeydCcvpxIV/mkPzNFiNVSB9q9UljC9OrwvBYWjQrcwAvbO6drEoA39iwP+NmXBW6EzB1itw94a92RMHWg90U0CYb0qCrGFziR1oKU7TDI6lRXMA+OdU/A9yzDzbhwgVY9w82ed5L9s532iXNW/SefXGYoAoV9fTcORfUXr+iZSo0hFG5egkcOLEl/+DEr6bLhaN4e5bvBx/Y/m+PD++veben+/vzY+D6//71D1+dXw7T578=);lineShape=1;" parent="WIyWlLk6GJQsqaUBKTNV-1" vertex="1">
          <mxGeometry x="280.6122842547014" y="1183.7277582496836" width="13.55762418208935" height="13.62792292063869" as="geometry" />
        </mxCell>
        <mxCell id="D6H2GTCvEHgJT1fH2991-135" value="" style="shape=stencil(lVjZbhsxDPwavxK6j+c0/Y8AcRqjaRw47vX3na0h2+RaE+RtveasxGOGlDbx7v354W27Ce79eNh/3/7ePR6fN/HLJoTd6/P2sDviaRPvN/HuaX/Yfjvsf74+nn6/PSyWy9OP/a/lC39OuFyktwUV3N/TGx8l1f9vvp4AL7vXa4CT2DUgSe9zQIrigwZUSXEOiFmyV4AQxOc5IDQpTgOaREcASVxRgFikegJwUrTTKUlKc4Bv4rQP2UsrBFAk6CjlLo74AECsClDySOVtQJemM12jBBbWLEn7UBFW4nQMkvUKDW8CKQ1vo9SiVOJDauKLXSGS4stVQrE+JOJ0Sbb4EKVKANVJiDoPTTrJdM0SdLUWMI5EqSJxGgCvWLUiJl5vCcXHagmAoJ1OCCtxelkhaQLlkcoZwOlqBUU9AdQiLmvVAENIaSBNSW/JY0sM4CWulM8zgBNnlM9JJZkuXapOXBtfmJaS9jnTWoUHRXsAB0iaEaJmYiqR5yBrTcIGCf9RqCkae0cKeym7bOwLSUBLo+zPRTQK/bY99q/3kwZXb9tXa18o9WFf9H46zRf2U7UY+cADlG2fQq8NnGamT4EETFCRsq5dAM0yaf+oid4tILGiTlaBsaXM9NGvVoijc81ok8yA4UdiprzUgEYnGNh37ULhvPFD2i68bIw3cZVmaaRO0UGyjpAbTeu2/bnlXfGStQM/2vzFPpKMfdbeu/P6ZyJDvUmKOzKgmRkdlToAmpnw6kcrGG5iwuuEzAAELb75Ax/ySOpV32dl1BFWAziHYSYXdnaB4jButrGB6/mLVRIE2jCnj03epo4blX+WyESnI0wqhpu90aaD44VRsCWVRMFitAPbVT3OBmGnEb1II0v4FeE6Hy0wSHQdJvQKJmF5NWl7Oh15W3uQZTZzgl3mcFGlU3tDaCTeE/vV5IK8s7aT7KETaXes1dpRLSZ+/FpNwNB41qVwho1GsztNMVwwRxe0tUBWgMIZCevUZQicOd9lqhYJ047OGT+G5DQO4VfTF7PPUmxX6+xiodoAhfHitn2zHAh0esR5utmuzAaXRbp0fBKtiOLH5y7xb2wKWXOSFtBib8R6BGC6H6OkQ2Rm/trZ0Q8VmAW0aJG4sGiWMXOhAAAbvD5/OfUxAA+Xu7Cn3cvL6Srt+n97d4ZXp3u3eP8P);lineShape=1;" parent="WIyWlLk6GJQsqaUBKTNV-1" vertex="1">
          <mxGeometry x="400.8369152443381" y="1019.4616809266927" width="10.776683540372561" height="11.909736427008415" as="geometry" />
        </mxCell>
        <mxCell id="D6H2GTCvEHgJT1fH2991-137" value="" style="shape=stencil(lZzJshzHDUW/5m0rch7WsvwfihBlMkyTCoqyrb8X0nRWd190nxJ3b8CtygFAXgxZb/mH397/9Ou7txR++/rl8z/f/efDz1/fv+W/vaX04dP7d18+fLWf3vKPb/mHXz5/efePL59///Tzt99//WlJrp/+9fnf6wn//YYLR6sLlMIf+w8h/O8Pf/8m/vHDpzvxeNSh4vm1eDqyE++vxfORgojH9Fq8HGGqODy9HiGJeIKxtyMUEc8g3vfMbuKlvhYfR4wiXmHs04s3eHoMfmk6rGSMe9fv5AfKjyzyo4B8PqIqwiT5csTHxbcB0nzrEbPIJ5pv3a+/yecG8v2IVeQrPb8fM4l8o/mOo+t4Oo1nHq2JPK3nUpfH5ye0rDXcKvI5gnw6Whf5SvL56EHkO7gdM/Wu4x8T5OtW3y2fjwD6bMY+ksgnMEezdtH/fBSa79jmcZOvNJ55jCjypA/ZzFXHQ/qQ4/Y2W76gPuS0fd9NPoE95qz+pxyFnp91PctRYX/z+e+b/ID1z029c0X/YPJ9ijztb+5HiyJP9p7HUYbITzhc8jzyoz227VCfn4xhb89NvoA+l3jEJvKd5NMRHufb0b5Mfqh8hv0tWdezbwfwXL7sx215O1/BnxR3XgzUz+LOi8Hrcy7flp/7hc/lTX+SyBdan3HUIPID7LHMPb3zvAhoADXoghqALLLGowQFTHBZNTmAncFE37L6oMVCYJNrUToZE1pNNYbYFFBhWQ2gx3w6JviJ6vTCmFGiIfU9gDsAMb861PINMGlZx/Y8J6DgkNpJm+8Ag4i0ccNHZ7foGihfs9MpK6DQkIw9PLqL2NAfteyUr/EbyuafdwBivAaQE9k4YQJ7aDbFpoBGgLa36QQMdDKtO5JsboTeMDQEMt4ZaNJjq9odoNKQ5qZxdwDS1h6USF3EWT3qPqzQA7xGT3r0rNgAVKObLmUFDFDvXtSAFrumIVWNzhZdpiE5+mt8kPh7b0ctCqADpfc94hNQ8ETvQxmYASbNYSglN45EJ1CfmpswEpNAW4edcUUBk2L2qAa0aAkMyQDzUb0Xb4B9GGnr5gmY6ARG1gPFQoEGFjfK0SQy4tB01B3JnYAz2HsOsFV/nLSxewR0JZNG7+mMM4BEs7mimxlDw3cj+BTvG6A97oMxfMotjenm0NGRGSDLxo3tqV4BJAS2oKDAHGZQi1tRAbgZA0i2zgA0BwOILhVOW8yg54MFBhWUb0alcBYZkDM2QHncaQsNElicAfqjmyknC3wFmEMB5Mhm2l7oBDRe1qQWZ+HBBDczk7p74/tEf2ZWomt8n5jxdNzb+H6mjcubWZyAi53O6u4rn0CzKDkxNh4ZIPtQOSg2gBzsxsZRvYtGcfV0C68AEha3CxN1TMC4MmWlDRAfnbFx5UL7UHWnF1cm1aj7eSegXL1BQhqjvqhLVZOLjbMfBhDOZ9SXyhQL0BQwLt7waHFGfSmBuQCyD8yMDTAed7oH9nweELG+8QSQsDrzFEAh/hNARr60AJL2Kfsgfgl4VA2jvherNB932qgvBU2zqas0wKBVappKM66Mc2g71XwCxmZQrwByTi+uzADJFvUL6tA0BjKu/P/i2UvAUACFlgaQiH2Ra14lsekRkSROl8I1co2+takuGQC19YwWTkDmZT290AkoyCoNIGU/A+BOd3X3Rt9xlbomEYy+UxxnAOGti74zQFKPBug8JDlQjI2jTXfNnCw2Tjvdd/HuDkCh5XTpfWOykQHdAagAawDxfJMrmNNVGBeTJa4xtPw9L+xhKF9atJHO6aF+yQAXQ5IqlBEiSoQYQI7dxaAYIAH44je0cVMjxXUAkLZOtbjlC8kJzF1JOgGdJz2V/kymoTEEZYnrpbRzUz3Zeilp31S2bn+hjNR6XlQApeHs37k5AL9Bwt27dXipTdO9grZuKHNd60D+e6izXMtEbGPsHPEdAM9Rl+5fC0fLZENyO3fhBqRUuVaaLGI43zewGL3+PRSA7Hu6VboESEHhakhTA4KrSU/nji+WdTrPdLFx063ShWpM5TNXymc26oaE6j012XJlQHPTne+w0eFmjW5g7PTnX3U0Q/nJlSsbmt+8cpb+IL1wx98N6FqenhcZo679Q+sQYrohlOlG+V8CogIiz0HPxcpxU3erVDnKdy16K8NDc2jOqDMW/VYIkRWAmYrmznZutFqhnCgfF5t87GcA3OmmWS+jrsixmvamGIAqndMVLo1+UwliAZICMK/WtMJmIUS5iMHlDZ2dQHOBVufsY9OOKAu0qHC5MhUulEM27XIhFixSOWvlpByACmbLICXQyldJrOpC6sEZo+KD9guABIuR6fczADUjPAGEq5yUGJABMLVR1YBWKZP3IbkE0EUiTsooBsisGvHRHlYSiwGSje8NO2HM9UopaCXiOBsvpdHOPXkrNJRlvUgmlq2bfzVdWVz28SIh6t9wkXL1gIukrgdcpI3dHNqF8nnAReq7KIVbyfXvWtaVvufKjjSFtMbJk6Ker12kjV3VvF1Qh6Ker2XsGPfFppb2yf0KIPRnlYJ4WaWFqQVs4l1kR2p4F0FQVjZTO7blGqAIoGHf+MyaK6+Vw6ysk655k7rnAFdLrWdD0CuAJAVWKyS/QaLXesGXoquaT3aVUfehDK4HR81TlM5+KbregsZnXFCLWy24NKSgTGD1+JJfCkrhSsYe2uEi8JJ2APwKIImNEjG0HK7rtkQsNo2pDUYlYE/s8PcKmEovHizNOVw7Wq0zQwEUxxkPlqJf7sg1RtdW49yw69aIs3Ss5ord4aukIUMqmNgYVaOsnHmni5s0NwKPrDadL3QpK8HKgd+QNJOdODljPDhFBVDRb/XPSbMaN6Deqo4noKNN9+GuCTVsJTOWKonsxOn77gpmqWINz1iqhAOJS3LGUoU6rE5JGlLRrEPK2F9tADHR1e0JG7c6VuUNibs9/fWuxN2eUSncuqDGbbrSP2cA8t49aIRycUXQaK2uEt9oMFqr9hDQ8xlLFXISJ2qrsVS90TCRt64ecWlbH5imMJYqPbEGoH6h5vpJ11VGcDMG0KbyjkR39R+5PnfKnBitlTguNgzLmmsajNzo1VynZKxocXWoehuAMifVnaKxYAFi3fsICqAksxHn4QCJbpachO0EMDOuVQOOmLEAUd2lrHUNmO4QZU0yx4Txw6LmRQHEvWvUuo4B6Iwzai51+Rixv9qouRpQxH0wat5FvflgL65VYF3NostfzV2y4O6F4q6+TzSH4tJLE4Njf1vv4nacuw04MCNdkgauA1OtJelZwjzGWLwm7Hh9goaIHVMsi8Nnkcfbtq6Q3bBGZoRcPGrDwmDuLnOA/tT4u7t9iuOvmgZo2Ghi7F1MpmINxMi79BJc3OaN2iTILeEmL1S7IJc35p5VnpqDljnpbW3SH1Nf8aMFbzskd8mwYFIlNW0JKEi9kkuhZyzXJ+cfMn8dIOt6clni9jGDmzyuT1Rix+dYcrevMxYmF+vTrydQeBqH0sCE9rsYmVBf5BLRtU7y1xyis9+E8Ucs/usSxACNNii3wWBiXcLVr3WQf4guXxaxtm3Hp5wvkVOEfjhkvsOLY0TqbtdiKrs5No1fuqiaYDq/FPD8qPOD4Q/+TF1Iquu6ayuB9UA5dMBjOvhvG1GYETRhH/CTAC5ZEtBmg/9gDoWST773Q6WuoI3IAQ3c9RMGZNlBY/mA7iAou+DvMgUNOAM6D3dbPWAqPChV4A9cBa9ipMDf+bWtS3H74fZhr18+fPz47btg9//XD4HZn759RCz/+Cc=);lineShape=1;" parent="WIyWlLk6GJQsqaUBKTNV-1" vertex="1">
          <mxGeometry x="410.0272538225624" y="1024.4431109281136" width="100.8341856374371" height="160.77096235865278" as="geometry" />
        </mxCell>
        <mxCell id="D6H2GTCvEHgJT1fH2991-138" value="" style="shape=stencil(lVjLUhsxEPwaX6ckjZ5nQv6DKkxwhWAKyOvv0xujZTWym+K2rLeRZqanp6WdXr3c3zztd8G9vD4fv+9/H25f73f6ZRfC4fF+/3x4xdNOr3d6dXd83n97Pv58vD39/XSzfLk8/Tj+Wv7DnxMuqOS0oIL7+/YmS9L/b76eAA+Hxy2giXcjIEn0lwFaJoCXQgBRpbUB4LOUdhmQnNQwAoKERADFrlAlucvfZ5VYh++TeBJBcZLG773kTL4vksYAnDiyn4p8jN8Xup/axMVxP1UcSVBzEkeABnGEFc2LjhFHJ4HUrIXOshXQJJAYmkotYw2KBJLUlkTHJOUkjgGQk5EVqEsOlwHerWVaeZSkVLIEYhz31KK4QtP01ltr5dwH3Ig2sVj0rZjnyZfF5xGQO33Pd0PuhVoBQTIJImVLvwrCE0AsomOtKzSBxBC9jaF6aaR0CjaNslfBV7IldHwagy6169p5coBNBpAlMvpJGZNUVDxjX2f/Sm+wlTTQxFX0j5KWTtKM5rk+Ks7vR0XHlMbcZe18SlGicUcoI5NhqLShBWZLJSFolDbmCHVPbPRUifNwY0ydGjoEaWQFJLGYeYs3rHmCVKPdjepeShLM8MF0I80DHlRnAYWNQyc+2S1RQOgit7EArBcwcHUsHHwKyxIAhkuwMcyVAJBN4VqX/0sxpDFo9TStyFIdBQDki8zG1C6KKyB2slzU1bHSCl9ClDuB/W1agWmAt3VYYiCFQz9knbJEqIGOM1YprGblEkDHtKLSyrZUpc5cYkGD3jNbiZChRY3DRT9kVoco0TRQlcyokaUVC0iMGs0K2aIabKj7zs2NLlXuic18W5SPbAkA0w/vM/UiwPR0pRbx04AYepnWCVSoemvuDnIdikGUsHUhs5miuVfmPMDZBkJl2AoYuyaGzFUDZ6M8VhoDwLMTn7eVXqSNBY3xYawJxJO0qE5jF1adSWVMkg2gUJlBmZJxV44eBuaRVaJ4ZqPXMm0MIpOZOlW6BmrIarZSidMGO+biKGCPibH34HmAWiHL3GDBZccxBghPI3UozW4JI4ZRo0xH9Rjo/cTisscVMLIKWyH1iba9ASFphS+3p+lMLzSQRHM6gRhXMlDQX9aGKlWNZQKZKYrDAJuiqf+8OeCz44xOQrZ4DeLIMPfNeUP5oW+ZBgZQuVRGa0MXAFshTI6sUr8E5TMd91EMzh6+MTHooal15mzSyoQMAD+ZRE/oDaPQTJYC1SWs4Cajy6wDAHGycGyKIkthmtPML6EO1pEVeuOASut0q8kuED5/DfoxAA/vt653h4eH06Xt9nd7S4tXpxtevf4H);lineShape=1;" parent="WIyWlLk6GJQsqaUBKTNV-1" vertex="1">
          <mxGeometry x="504.72062807004994" y="1183.753005425629" width="12.049909822947479" height="11.528327092925274" as="geometry" />
        </mxCell>
        <mxCell id="D6H2GTCvEHgJT1fH2991-139" value="" style="shape=stencil(lZzZkhzHDUW/Zl4rcl+eZfk/FCHKZJgmFRTl5e+N9Diruy+qT0tvZA9QlQsSy8XNess//Pbxp18/vKXw2/dvX//+4V+ffv7+8S3/5S2lT18+fvj26bv96y3/+JZ/+OXrtw9/+/b19y8/v///15+W5PrXP77+cz3h3+96cx41La0U/vP+Szjq/N8Pf32X//zpy738OEYX+RZBvh/TydPz+5GyyI8A8u2oKj8byFcdTzxiQvnSRD7TeMoxk8j/f4DP5JM+H+ebj/o4/nREWv90jCbypaB8LCLfO8jHozyOJx+R5ntu/02+1ufyYx6jiPwE+zH5/DgeW2DY32H2XEW+0HjMnovID5YX+6lHgPUfZs9B5Avs76hHU/lO46nbXG7yk+TL3p4t344I52vY9gyRzyxfoshXknf23I4+UD492ls/Aq1nPFoX+UTjiUdoIl9oPGH/+Sbf4bz3ecwg8hPGb/L5cb8Gnsc+9utv8hnsweRlvmM7pGt5W44k8uRPett/vslPWE+Tj4/+fx4R/EOver4mnq9e1D/Mo9F6ln08bvID7Kdn9Z8xoEPvaZ/vO4VMKxr1RJpCA5doCimqwqA9COpzY0Qn0SzpiKpQYEhtHK2pAqURrWvYMAXyc63tsHIqmOeAg2kKKahCgX1odQeWO4UOptTK0ZMq0FkwhSBDyjubulbILvnIOx28VkguG8o7H7xWiDs7PBUsHtM+BPXvptDIlsIRxPgswoJp1KkRwRQqLGs1Dye21LYTvFbobg4NkxxTSGIaFqVgH6rzkqZAaZ0p5KQKA9xMrceQVbJAAjttClJImEKhfXCZiClQ6luLhqo4MXc3Bd3pue33WiFrcWMKg96QjyzZcsB0s9qRn6rQaOPSnuKpEDE+1KgB1xQaLWvQZU1nDXCpUCwlyapAOYwpSM5gSXyGORQztaoKVNWVvoP+qWBeA05caRrjLA+mKFrqLvtOBXYCpRw5qwJlqsXbUt9h8lohaapnuVKiOVjpKqs0d8S4VgjOlibOIbvAngMGlDw22nAqcH2du+bnOWGCm23ViypQFM1VM76c96G9VihaEtovdKbtz3Ie7J3kKm0ASd7QtnVdK5xF/qlgJ4QmHfdxORUG1qm2ryOqAhUmZjkCvJixkLtPUz2fmWMHW1qVy+OQzOApV7+dr1Mh7VB/rdA0I7NDS2jBKq4fncByC+A1TEHgF3M8CUxjwRWPfunm2q4VsptDR3dvCmKt5p4D2NJCmGRZJ2YzFqB6U4UJjixFLbIsiA1apaAooYVJKmmiK7stENMbTEHiQ+WQZclOeyzLLCEKYK3xPJCnQsNM4JYSngodXaVlqZK3WupLXsMUksxhYvoTqxavlr5ThWIK8obGpaVVC5JgWc1C1moKEnZNYcJ5sIpHTMPKqEFzcCX+quzAa5iC7LTVjlTtWl1YBRRrWDRFl1VawUww/iq3ZR8GukpTkNzbiv5CqxQUOO8BPd9CMQQZM9OAgLJwEqdAxaspSD3dE1aKU/1YPwP3E3nxSp2r6alFXC8bzXoiLxVWr7hCY0Mkd/KNwEw338ZgqWLJJo/guearnavcoVXADa28Bq4U8zF5BPd2MXjKT8SIuh4ak6eD3xVoGHwEusb+EbCo77s8OOXjtqgn8pKMmDxlwv0Igj0nLEiaZkcj4fPbThhP+bzDwxN5QQ1NvoP9uF7iKIyfqX2OgoVwU5hndWNw/HJ+V7cH9qsq0jva3pEn8oLxmDyiSA6b5/Nbdxl0ynMzpWo+bvIUxqrizoPPe9XesslT+n4CiXfyBOYXzQzGxPNVtBdq8tQcKQqxTc6eihZEkyuoovOdEeNX1pBt8oRo2+mT8SS0h+x6NdyMzppzzIz+Jyt0bPL0fNd7nAxmJ0XWJvuH5OZbuTTThMbkCWdOCqstNgTVirtVeso3nG90vbKG/vy0llO+o71FZz8d87Gr50+w/6hQ0RyIU8aNiJ/yDI9FZ28Tq1CXEps8NbGCm+9EskRwjY0QEBAMijhOLtSDJmTzrKufyF8sEGxAcAY68YBdyRPb6Wo81N2/mm/G5/v1JFzPbdiciJYGZ9ATDfrK4IgNcGXQ1Me9OjAED7tO9OTue7xYf0r4oiZYy97wgE03/on7JQnrkkf7kZL29YEsbgL8guQMgicQ3QQGLGjYQN8f3ABXYb/Y4KDIyAsD+vPyUqG+iABB2XiT6Tlug1cEQ4OTCtLkqeXpuucWgamCjy7je4EpKmFgVsyYonIeFp+SMBqt2EyeoON4kZGRQ0/OHgquZ3LzzdhXTAr1mTzBlUm7WZbhUsWTtEE9z5zuWYYr4+eWSN7w7Z08rU/WBuEM2GzOzv7Di+drxcn+4cTc7+SJDlYcwnFiWk/kBY42eQrYZWOedxUtZXBF/cnoCLM6ipDJk70VPS9WwfN8p0MIqH/lOB2D6aVVz5fJE126arwbL8g+6s9HQZy7OjZkwfPlesUjv0AsdD0zs8yU3ThecMbceiZsyDSHoERECDxCFpnOpfFrhBcI3PAIKCKyitBP7JR0bRyaPNJjtTnUB8br7hDujhVY1wTd5DNRLXd2cYegU/wdaj+LL0v0eSWtdEYchyJSnZuYw823YFdoaMK9OiTY8RBSpskTa21qfrI6PHSdwo2fr2tEl4CaAnZ5HZd2tcEoI3M1XntRs0W1iTaQFWcKEpRaRycdHW7UGpLEF3NWuosV04hFhJU3MEs0Zq20G7cCYr7oI1NpuHitsg8RS7HVqc6qEGiVqlbDLSA8uLrtQgBgwmR0LNHKVA9TUJoEE1djd9dbGha40XmwWrBija4puVidZBpzZzSnQkIUzxetNTJsfPLtT4XAb4jaqCiMS6STzXIqDATaFtQsb+DEdF3rmqpAF2lMQYfU0LxXN0SG9AL9rlp8lMLUJ0f6XJxLWiWXXizOJZWXXQGfEhEwtAAn/PgS8P7TiliORodkw6BNoDywCZ2j1kS5I/XJFJT/yE4gJ0fJ5Etl2V16zBUba7noPYXbL9cKrpVo76TEJ7ters2KMoEbAfNU4Bsptk1SS2VmfpshSK6x9p7mMJXvsRgpRFEOjvnNlH2zfukwmwI5ATtf4jVWCk5vcJT9xLmG+Yghc6joW4uLoqvKpZq5aZsqcZJbHKd54R6k4Ig0C+ihjZuO+Z34JkS4uHZATqA6PvC6KE2VvLs4nJi8YlFZsMrVPuGrExJ2F6uT3pB10nEyGpGVd7dupNCy+htagyddlMP56laNu69oChQUa1VSkOVolDqYguStK6mjm0Eu7JoCDslR9mPjm0HdXUBs6Pmqu8VquTJe9Bka2CNHoDr1YoPl+7TTlstLGhqZKt5cnF7MVHqDvwiasdhtyU2aL/dbTVXlDQmX1ao2YTBEZli2qjHOFMjNmILOIWEEWsxZcQJMerNiWO91RsRsrdzWW5eRaWyOx7nIsjQkd0MrBgwo3YEIpkBMsB7dbb+Anq8nzZeYCWDyU+Wp8dKz6xzxrejiWu8MBBbHrUMqSffcN2zEdUelH3ib2OQFARlIpeoOmRxIDezDIaXY+O1Dmf0dy5L1nQIBxrAx2KdDPhnIdN9ZaMhU8d9xaPwdDdepbOhLFw4vaA9TpZNyjRvWVCNv3PjEGDDcDMfdY8RtuESEG7nDXYqr2OgYjota8FLFOC9T3uSJCj9cjs2N3+FwJw6uJi+hLyMTaUx3Qw8bKes7OPqdHYJfpmMaJP5OU9T0gz9/MJO7ds9XF9zFZw6SM7tPRGDOuPr4j88PWF2bvOQFAffLfwcq8NUL17njYsXk5bwEpIZPdxchYAU4XQIb0J/M6edLOO2cav8v5bsbD303amp9GZDqveTVHvA7WVOZA4EbR1M7uYGpq8GhxgGZRTci1508bbDL+TiDuzHd/qBBu8tNgQ/w1AQoYJX4pz9E91Le/nH76t0vnz5/fv9o3v3f9St59tP7F/byj/8F);lineShape=1;" parent="WIyWlLk6GJQsqaUBKTNV-1" vertex="1">
          <mxGeometry x="99.66331457264319" y="1221.5512658768412" width="133.63248094282545" height="236.46201734432643" as="geometry" />
        </mxCell>
        <mxCell id="D6H2GTCvEHgJT1fH2991-140" value="" style="shape=stencil(lVhJchsxDHyNriiSILicneQfrrIcq+JYLtnZfh8oCmkBM9Mu37QAHCyNbnB2fPPycPu836Xw8no6ftv/Oty9Puz40y6lw9PD/nR41U87/rzjm/vjaf/1dPzxdHf5/nx7tjx/+n78eT7h98UvJUpy9krhz+WXQCH8++HLxf7x8HRtX4mDs+eybc8y/h72kVrats+ZpBr7TJm37YUpRGNfKAL7Eqhb+0odxF8q1Wzjj1RBAlUT6NYhU6/bDi1RsR2IlUSAQ6dqW6A1LXHboRfiZB0K9b7tEMMEwfDQPqIy9TYimG3L1DJwyJTYOIiMwm1l3SwwimbdgINQtFnXSBmUSRsRLVRrowyeoH83WyV9JoMcqlCxYOo6fsChNKq2rL1TAiFJGVWfYAp4oEXn18UksK5ZRhVn1p06mAjuJPYJWukEGsEKHYuNKpBkkgZgG1Fma9YdMgUHpgCxoSyXbNKSSEDSOvRsc9CBiGCqy6jhnFGlDWA/T5v2TAJqFKnbJugvCdgHElvS2IhBhRaMEWUw84b9/9G65lXQsuhb3AYxb5XHywKSkeLJRYMH3V3gLY/BXo89UWvueAa91dJlqyF14HXdvlK24XcqCJwLttYIkaipQ3XdKu9F1G1EsUOm0/OSddDNBD6BqbkB0J4jAIWhYNNBFQLR+2Ii1R6koJDhRUAAc6r7wWcc4cQ4EGlJEYp0It3mVYYibtinJShAfeJCOKiAhrFfHCvMVvyepiOD1N4XJ4+taj32uDweqeRH7ZVQ3MBouhVpXhwb2dXGlVE5hZptb06Qs1SGq8VznjS2JfSO0qVCCdDz3K5ceGB8vccyaOpqRWNApCUNEEyHCp9QhKpliRqGMK87dD/F+swKdLIqrp10ZFgl3RodlLJyH2hcW1zRuMF9X68gbhiYqaOkxTeO8a1OFptvwjnIYn6U7NBurWBujn3DKMPWPLiVTjUI6YFG7Dod551k3SGO+ZoODHNQfnZ3WXVADKwym9z2nuCFIla/5kQ8QGeZ9fcDuKbFeRl427sEEaX4VaQMMG6eb4sqcC1907AJVby5lIH8iSOIbG2BbzKE3VmD7fm62KKrShhscvW+BYHuo+9n3rXXD28vg+4Pj4+Xd0nX//uXR/rT5cUTf/4L);lineShape=1;" parent="WIyWlLk6GJQsqaUBKTNV-1" vertex="1">
          <mxGeometry x="93.48956455128977" y="1455.040416537678" width="10.907497718443267" height="10.145849128554783" as="geometry" />
        </mxCell>
        <mxCell id="D6H2GTCvEHgJT1fH2991-144" value="" style="shape=stencil(lZzZkhw3DkW/pl8zuC/PXv7DEZZHHSNLDlme5e8HnHZmVV1knVS/ye2LLJJJAhcXYL7kH/78+MsfH15S+PPb1y///PDv11+/fXzJP76k9Pr544evr9/sXy/5p5f8w29fvn74x9cvf33+9e2///hlIde/fv/yr/WE/7zZzbnlvKxS+O/bX8JW6///8PMb/tPr53v82GIRfCN822IUfJ+AL1vvgh8F8HkrSfH0/LhNHc8MgA9bnoqPz/FjbFPHMzPgux//7ICvOv64BRj/KDp+w8N6jrzFIfhI87X1rIqH9R/2eoLgE8y3z63peHID/Niqrk+B9e9tq13wFcbfy1ab4DusZ09b0+f/vUHO8XY8Hseftgjr0+Y+3Bs+w/tqYytd8AXOb3P7M+H6tKb+JG2dnl+3NARP57Hl/XXu+Mzrc7yeG77A+rewhSH4vzfgKb7afguCnzDf2rbxeF7Klghft5gFX2G/1az7s6D/rM4fVlzPGvbh3vAV9lsZW8+CJ/9Z+h4edrwFEFifYuvZBV9g/5S6u+MbvhO+6PvqW4D9U/LWm+AzrGdJe/i84Tv4q2Lu6fE8WkCm8Qf1h4cDOMXn6fED1j8PHc/cErzf3LeWBV9hvrlpvJjbAP+f6x4+D39rOxYWyAyE0JgBjqjsz7szGOAict53wGFgMY9+IemaRg5KOW4jqsGEU28GQQzS7rfPDWwRpxrQPl2vVeJ2xoO89pkzoEmbQZJlLVugX+gaKs2AuK65Bh1S3QINqW2hqUGD02bOMMt7aEiHzJtL+DYDipcWjrrspb7vrnMDi7+ySoNfXNIIbgad5hAdpbMkBHbroohRDXDSQYOC/YWi/kp6hhrQAVrPe3QCi2fyL8SuBkQEzSDILyT8hXg4xjsDSj3MQKmmcSPwrWZQZJXK7keeGaSkBpV+Yeyrfhgc7vmZgdB3MyC/ZAbCX+zQZlrW7pa14YszgyK/wCfODIJMemDOZUe+JTXobCAhy9xzhgNkbqsPNaATZwYyaYsYBYLi8qSPy5o50TRfrUQ+8qSLyxQ4xplBrGqAB8iovswhI3UwAyEzRiYibY2s29sMOhvkx61h/Aa3d9b8IjNBt7g/HuODUTTKAMxAGJ9xQHzTac/w7wzwTac9Kh8Gg7d3dO9h8JmObg4TabQZiOxiRJzIiRkIDTWDRnMIuvksNYjkW52yYAaUmsegqb8lKxnojxmII7NsKMCQpvqxW/b0BC9uzLIz2npDXbdlf7QvnDZi2SUdz6E+zPATnF7XXK90TGb6niYc+LH75XPxQo9mmZjcNs31LLtv4L+cllsjixH6fmvCU1OVI9XMybyGhFp2LvoEL6StsthR9tT6wDfkO1nTsJva8wTfBN/xfdlqyHwP+vMEL4lnnUgh807DD20koDiVVetrEfOjMzyJ9XlLMp6E0c/FspZxf2al2K0gQ0hOazrUuSd40b5aRUKRNEFtDf1hUtLVOsaM5NZzIOFP6t/aROHCaYk9oFgWtdbTj+rAE7xE4R5x/1tK9riencVxC9qixWUslri8tGdmZ0owe9lP9DO8zLeiuBb3aHWHn0QJ1J/3xkTL4TuTfIcf+w78TvzcAu43jx/vwY8j7/9OfGReuZe+7vDEB6KqP8O4Mq5PeTyPwzwkvl+Jv4anYoCjxat6iM+fQ/H0/LQT1ANfd1nxCV6SGcMTYzV/KOvZ0F8lt55cDEiqf4yO/CGpqjQ68qu0//qBZyEg7bv9Do+SqaYMY17Ea93/E+WbYzceWn244EuynoanYm3e3/4dnuKFy88nF6eL7jfDEz8v+2k98An9YdFa+cy4PlUV7tXtAOOvqhbMjP6/Kp+ZfN6bxpfVrUHFYNXaZkUpubn1rOgPm6qFs2LzRNfzPhvy4a61QsPTfhiar82OtSdfO+vIV4erhXWsPE2tZc+xC7JPdRFZoIkDWgZFDajgEZ32bwZI+aLmbPNCiYw75bw3oCEdOstuEEPAnhqziG6ZJjUdaU144cHPTc3z1iJRE5TbdxN56DwZP8WNs+dT08hU5fXWZfZsfarikScGJdJmEIloufrOMuB9KgXSOfEoe8FvGVychO4WiQ38WaNocHqaiX7EePIeKP9cZWl3OAfP4eTksAbZ3aTpqJlBft9pniqaXQzp8IjfOeeplfOLRZ0qgl28tffiuybFc2Cps2lDjuE5KEsSPQeKSM0FqY4FiKoi2wqaKCqqM+rYMVNd/GgY0oomWbOhsyta3VikBUmpiJAXpCi7U18xSXQNS0bqsMNGRcvJInx28y3vSzqMxDYIZk6UMzyJ9q4cZaSd9k9yjp17a5KKNoYnUTpqw9LkDuOoouIMXH9zJDNgUcYRLkv6Gj5fkhTDkyjqRC1LWjEqaSQe3I8S1J+vpBvma/ikeOISwSXdLJr55zf0h0H97ajIkI2+Ojx10wQVmZdog/MtDk9VQNcZs0QnOF+us2yJWvh8FdnSxfuV+GJ44gOu7+ZC9PN4FhUd/kK0PMOTKOrxLLp6PIu6Hn+1/+X8XojSQePvhejtis69oIgUNJ4u0R7frxRNVlEA4osR0Mf91tPFfhb/vIoa6B+aNBgHLAoH5Uud+bDrK2jc0ev8+SoqoT/PrmhFyacr4qyiGIrYwsfaRUOL8p9V1EO8xJdVNESRVvZz4yahpI0gq+iJz0/yfC6qnuGxqdUVDbkonJQPrKIzjl+Kzquojc+XnLN27rHVtpdVlIfz64rClUXFrAln5aJwVpFzNS1gvhBcU0SmGxHqT2rC9a9uvvFCZNYmioDn17USlonx2jWZ3K6QPMHLfFdTDbzfphf0VtMO5svZ4QOKzMLHSsXzMnT9S0FxbbjOsrz/4hO8iDolXYiV2tSUkE9O3f+rrQz1lpoVT/na1Hyn8P2M6AhHuZRzpWyVJ0ewoH1ieWDK7FWsfFEId0lP7njNNkZtwjeDi35DkbFy4+bvqOc41yutbzoDVESTysy54N27mNx7YGkhJvW9mQtqq9lVDBImSyfttIkn7e4v58g9APmkDxqbJIo61NWafdE4LQ3sc+eQzwy0Rf6CMrrCpnkp0nhu12juDLCzqGnUXLonrVLT2uDqpqT30JRXJ87rY9f3sPoj2UDKQCtW015yoWeRAfJ83V234Nurt6tAdwZ4KWVodEgXB8jfT05cFhlaUVwMneegk+Yr5XGq4rByKjYQ37qSQr6Jo5foJxbWk4tAt6s25wZRs97IKr7vBTIDcjO+OcZ2F+lES+iVi2aNu3uyluMjt2d7aX5dU6EhVW1QNddGueO6zDzUgMh5cld31p0QvrQo6Vdk+p/cmb7d2Dg3GCooxMRdoVPbrNYFjIvLo+56Kkm+J9dTI/KlHPWWduTPgOSkrDiyip5d2raK0HTrt7jmJown2e29yQNqmsdzRXtdunnEX17sVt0Uz45xZom4lxfTVYdDmaO45srOZbakrL5h2ab45ncsC5XidCzcoqU6nQP7WCzLlObQimWY4hxF5Q8PDHeZA2WLMjUgFJThqmtWLXiXo2ZtDShIdmrRul/GW8e1uYQHZe46dD0z9g7Wqc3vicvqrpk9YbLTsiOoSGib02kSXg9rTfPyiDJBc2QzYhmjDW32Z5mgTa2bca9/Dy7uYZbTk+ouEWX6ntV/RvT/ve759w1PCXnv6j/5w1Td3a0OuP9H0MtAgWWjqC1TAf3PcHX4wL2MxY+f7obdWr/v8PxhraTjITo6huZzAXnW+jBYUzyQ0dVKrPOlsuLMSpoCthHMov4tYDyaTpfl76TMril4wPg+h98P1Os8XbPqRduW0x0vn18dntqqpvq3gPFoTu0LCCxrTvVXgTsSgyu88gs+NaBC1XRZaEAGsWb8nhM53fcm+BMB0ynFAb+j8O5PGV7i7R+37yb+9vrp09tnF+//v35n0f709o3G/NP/AA==);lineShape=1;" parent="WIyWlLk6GJQsqaUBKTNV-1" vertex="1">
          <mxGeometry x="425.54480059148176" y="1228.633573558235" width="69.00592319095871" height="229.5855176149117" as="geometry" />
        </mxCell>
        <mxCell id="D6H2GTCvEHgJT1fH2991-145" value="" style="shape=stencil(lVjZctswDPwav2JIgudzmv5HZuI0nrp2xkmvv++qHqoiJG+TN0fBCsSxC1A7vXt9fnjZ74J7fbucv+5/Hh7fnnf6aRfC4fS8vxze8Gun9zu9ezpf9l8u5++nx+vfLw+T5fTr2/nH9IZfV1wV1QkU3O/rg1Il+79PPl/tj4fTwr5JiaN9kFJv23uVNgJyFB8JoImrAyBV8eE2IBTR0UPyEvJtgEZxIyBGycRDdFLLANAsyREAjtQGQMjSiIeUJIxl8EUSAWRvj9SkkRPlJn50oFL0tn1pEsccOXHk/RU1SoN9pSmFfctjwFUiKVpDDca2QN1jIYAgefSgVUojADTBmKIUehm3AUXCWOVcJJMktSbBj0ny1IN3c9ZnRJPKXOCFY18s3rFdCTTCWLmGPBEFKFFatQAlgJxXHkqvzTYbqtQxTy31J9sA3/M+AxAV8RCD1DACHAWo9pzMheDtN3WnAag41uBds2b7+YzbWRV11j6QXlLJhqCul2W79ySNVcZgUGLvRMeMliRK4l11NgaJI4PE2fPn2iVwuwDiDTlzl/3tlpA4xpsxuRgNJIxEyxAcymVbYAAScYDJaSQVJ6JqkayAZYwVNmrRo8ZDoTmdNHps6uKksSMBYKocaZeuj1RmIr0zaPS1I5NtnVaIcGUbzKpwYFohWSob9onEvOq8Oov4+zobwzqQiMEcs7JlmtI1M7V7vMV803aNMsf3bCyYyZajlXJhg0wk3pUygmiNFHilvLCPROk+ah9XCYV0RRJAxL+NlnpKs5R7QhY0a0R8kfFgeqJIITWAmJv9EU1H14poJywAie1r3nrAK1hawaqWLEDZzokV0mgL1IsRudjFZUo0SSuy5EZADJQ6YJaZIhr6K7YBvidxXoO138huAbxZCCNVIwSdjQdHxw7YHkc+QAEz4RvoYoPO4tk+mGwdcGGL7P41X4YWqzxbLqYymTtko0FrsisqRIlRFPchyzhHJyFkXleyTT04uwTXQNds3LTNIg8CBSbczV6ca6J8wDSvBpDptdBne+3Emq1smsc+OhYAGjR2qGoBTJe8t70EAOsl7AuGogg6kKBbv0gssso2mGovtrhZMEbjar7aL9g8rOLMedCp1P5jn5D+b48f/75XPR2Ox+vnruX/7fctPLp+G9P7Pw==);lineShape=1;" parent="WIyWlLk6GJQsqaUBKTNV-1" vertex="1">
          <mxGeometry x="428.22837061813027" y="1454.8793565548044" width="10.4983410225419" height="9.76321428949564" as="geometry" />
        </mxCell>
        <mxCell id="D6H2GTCvEHgJT1fH2991-147" value="" style="shape=stencil(lVvbclQ3EPwav6p0vzwT8h9UYYIrBCggt79PKy4dH/Wc7TVvxqi9Gmmmp2dG+5DefP/47uvjQ/Tff3z78vvj30/vf3x8SL88xPj0+ePjt6cf+OkhvX1Ibz58+fb427cvf35+//zvr+/myvnTH1/+mn/hn2ecd7lNUPT/rl/48f8vfn1e/unp82l5cLFvy6MLWS3vYVueXE63l0eXxrY8u1ZuL0/Ox215dUEub/veuwv99vLsyr6ZgLMSthaX992E6Jo4yuqS39cXF/3t9W0Zd6xv8qq687u5YbhU1fqxewJurwp7h+u0Pq2/cO0L3rXdYBxZE94Qgiu7xTiDHgUA/kOA4UoQgMR3kIJrCpANILsgLm3e6X4LqTqvAHCLvAO6i8Kr4QV531L2roh7Dt3lfUs5uq5ifvA9ZFgl7gEcUnfXyM0VFffwNNrSWMdwDYjLNRegBJdEMMM3685EJbmiPiGz0QVGi2OFMxf6hOq6AlSXd4IpXd4DvD/Xne/8suoa0Jnca9Q2DLah5hVS15RqYrpWGQ+Ir0E2gIWF0Sm5uG+p+eXw14C8XO0AwFmE0am4sRN3y24Ib02NQ7S1tclrQF8bOAA4aGEDItjvx9rh3mJLOaw0fACiG+JYEfJxN7qDyERM58RE1ovzIoBydnEwoCsbEF9kA6hSXFyu7BoAKDUCFgrDAIR750MhnABFHetYKfwAwDVEUiz+AqCyKHiObYB3iS2VuALyAIBbxU2DGH1ggPKlklg5DNCCUkrZAJDqldEmRAFQ3ArqZUCUvlRw6oEBypfA1SMxIAr3LsMYHZeYuNaH3o1uAIJmaljp42yDUqAQqGZLXsRDRRZNfA9D+BLSRy4MaOKma1li5wSo4liRb8hbAchCCQDQMgMUt9a2apYTQBUO1SjvofN0PSL4FHFdOF8dhiq7DFEAuPbpMk8jybbdaDCfcr4WWAkgoaiYnll5v+melly5BhgJh6Q4hLcijZO3dr8KzGtAMdKhr3O7BtQlOk9KQCX2KRQ8A4IyGrxkAKp+wI7plLBJpSohRVIyAPUJRzY4AZRYx6k3ElhlVe7XgLAO8QAkWT9A7PA9aCKDq7GE8zLtwplJ/gCgTglihxTZjEFVriPHEaDrer2ye4PaugjRfrjaASiytASgmXJAuTdIhY4VgKhco7MvARCUDYPZGwDlS6BeYm8ksaHaGt5sKUgJN7UL1aJdpqxxFGEHoLmqbIhL7JwAKh5GYqMBUL2rgUNsDFCF3zDdsQlQNiAejA0qoQDQdxKYKlA43zgS1KnEbxpAeqkE6d6jmRI/SPYew2wpSFUJAGWguSVBAgBQni5RCiwA+k5kUONV3fRgGVp0BgreVK/QvkWk0fkRuxSAMlUsMA55dO5TqIAY3JF60Y23ANxrqTJBDCPJoBvv2MDd67o6yNeAfmH0UL7RTXMm6gjqJqPolrcFwDe6ciazJQS1kmTWaAT1nZumY0UEde180bQSlby3rjF7j+rijPMhRqP+BGu0vGkTQCiAlQ1XMdqXSnslDcy0qG7OEM2sHjX3EZXVorOcIcuX2u6VdDxjVJ/rTwKsYmqywzQOkngtz9RFpSddmdWWQHSk71GqKYBpZEN9y6SVuac7Aeri8mKVM0BxZTJVUFo19i0AzWlQEAwFiByjE6C2FLidMwHqlALPaVAFyXjwa/h5qkZVi3aYmAZAdSshpqOpd9W8DHKdpC4Aqhk/m5mVAYo1ejOu0aV7owoirpz1qaoV6zrEc29dF2Zxv2mUm6o7082QsOsaZTY+AgNkYRZ5OIVNqqwIE7nDVNf49lbNThH3UtvdAgTTNa6qd2L6DtN/FcB0Nl4c/pW9k9nIvtOdMTbIVkjl9uYECG+dIW9agypltby4+tzT1V0ybm8i7SobItMM6Fk2jMIawh+AIuX97JSQDdr5qpEOkIHqqUO1vtQXn9/quPKxDjnSrp1ZY8oV1b03XeOT5nptY/pOF9i2vu/syTbXj9H+a9v3Y1HVawcEQ06cL0YQQ2qHiyHHnda3HaN0PTuyg5o7ADsK6nIqcjFs6lLfz3GWBahPKEx9L4XUNSBf2JDvDP0oIJrkStQ8fKxtKdNbAG9oQ42zZt1G3lr0pNNzT2romUUe3EEFuSrXmAPkwgDVTJwjajP0UyOIOQT3DFB5d47ZzeAyqyF45nbl1L7qExJX1HNgJlgjR3OsXt50DjxhQ95VjxHS4OY6hKYSfalzmQWFpd4LpWZUYpJFfiqrU3LSoUolJkPGd6ZT6ajCDkCVzcQUOO9CfqiWVPJM91ATChAHP5JsWv/EzlVT1UQWca/U6WvyHuY7TOr3F5kU7UNPZD11rNFcXNUtqZhMn3nIiIvRjCCafDkbg2nfF6kSo+d4mM119SxxsNGzk62eVnae4WX9TiU0fmCUdXMmVOYlcKF87FyYjEFtsq2WDUA/RgiJmS/debFq3m2BeNTFhcC1JYhHtX+CXynwACSZUEzbbr6hle+SqXzAX1DjssbUjd8U4ReNVTECVr6+YJZE+EmpxF6EYFKRkPkCEBryPeK6z2N9k32iyHkEbqsmQMaDpteqSObKBx6iXmF77pl2Wex58xBR3q7nsXqTXTfPc01NEZ57pVVWhbaJLunBLNdvxz1PMpLUOJ7lsn7x5s21yudrnp8delnze34u4WXXwnPS1qXyT35p5e5y/PDy/ZgPT58+PX+95vz//H0a/Or5uzjp7X8=);lineShape=1;" parent="WIyWlLk6GJQsqaUBKTNV-1" vertex="1">
          <mxGeometry x="494.13" y="1475.65" width="295.87" height="12.86" as="geometry" />
        </mxCell>
        <mxCell id="D6H2GTCvEHgJT1fH2991-150" value="" style="shape=stencil(lVjbUhsxDP2avGpsy9dnSv+DGULJlBIm0NvfV9uMnZWcPcDbZleKbOno6Ng7vnl9vHvZ74J7fTsdv+9/H+7fHnf8ZRfC4flxfzq8ydOOb3d883A87b+djj+f78+/X+4Wy+Xpx/HX8g9/zn6ZWlycgvt7fuGZQv7/5uvZ/unwvLL3gWrRDpVKAA6FclYOgSm6bYcQqLB2qBRAhOVzVQ4cyYMI8tnpJUVHHkTgRlUvKWaKvO0Qk81Skk2nbYfkKTXlkB05sIeUqehN50S5bjtkpqYjFCYGEXKl6rRDhYUrsSexO9RIoUAHA40SKAHwlUJBozUHCI3qKOslRSklcpAy6SxxpQw2XRM5DQ12xAAatVDU0AhSexTBE+tKS4cg8JVkNy0RELyl0sW0qKMG6iBZ92mKgOCdiLN1QFmSMvlmHSJYkmQ9TEtKHrBGsf2wbDoCh9RzMpivEaMIkVhH8NK0DTgI+HThhIwzyJI4eA0NL0QGOk4csgafrAjZR6o6q4x3kHuzjAVRQjmtlutHGa9X2ZPzxt4hVHCnh4t9A+vnZCksUEPryb11B8/DYcgTgTVy79jr/Mj8RWQxL8gnWLF5xzLPEQfPKZWcokaba7a08jugmPgLaRJBnRme0pntU7AWlVJQK09942NH7kc7ExPe3PulS4gPkkuEyJvZK3SG/SA9OgyLiX+xfvmsfZJB74y9BxVL1eLa9da7PtKinbIOgrQ4qtHYZ5DPMqj/wowOMEud6htgHzdnZ3jqG7puL7LcCH8PlZF3o0ArHYK6TELY4RGgDmnZDv2Ii9bYNn4SfgcokiwZ8SWy2ANYi1pj7SCitYC8znUThQgjjBWPkcBdeG8hyWipVWm29F3WDNwaPI1IUliPnRZgXpOwRbC7zgAbct7x5nAxdPHmicqcFTwkpMuRbnVAgrM2WvQJhzCi1Gp19kJSiONDp4jVMRKRmEylpCPIruBZgZxuaqFZKCA7NEdLJ8hKvp8Yh33sw/2q/Yi+ogzEku6K6kfNM1GSDP4ESib2ZioPjtqwj7pxRMGjE62zQ9NH+P++q++14AfsErpKWcnBCurLdiiIPQNCjbbJxB7p8TTdHok8Bfn57G3T+/bycLnaejg8PZ1vxtbf7VWYvDpfo/HtPw==);lineShape=1;" parent="WIyWlLk6GJQsqaUBKTNV-1" vertex="1">
          <mxGeometry x="782.69912774701" y="1475.652800981339" width="13.81139625426329" height="9.294886608025097" as="geometry" />
        </mxCell>
        <mxCell id="D6H2GTCvEHgJT1fH2991-151" value="" style="shape=stencil(lVrZchtHDPwavqLmPp4d5z9cZTliRZFcspLYf5+eMFjvYHab0RstT3MHV6OB5SV++Pb46evDJbhvb68vvz/8ff389niJv1xCuD4/Prxe3/DpEj9e4ocvL68Pv72+/Pn8+fbvr5/GyfHpj5e/xjd8v+GcpDBAwf3QP4T47x9+vR1/uj7vjntJZToepffz40GSn45X8eR4lDIf905aOT+fJc6X91nNOTxfJc7fD2v/e+Lh+S4tzueLZHLeBylpdk+QSi6E+9bZgtjFEYt9kz4DUpZAnoAQ+DliGT5NBACnGkCRwADNRqHgCZlE2YuvMyCLJzbEKHWOQ2mS2ROKptmWd14Ke0KTND+hJnEkU5PT79sA8BIDBJvbtYknNqQkpc2AToshFeul5iUTo1OTNsehRXql7MXNRrcszhFA1MzZAEU6yaWM5JuNbk0KcWuukuZId6f5ewzoNnA9UBsKnDhfqUe95DEg2lzqCGUlgGxLtGeN/TGgSHMzoEgkrI1yCdkCGPEVeGl5QiVPqE56XADEhhqUtnaATLxUo+TlCYFkKyq4ZevWxq4E1kgWkElqVPSTuYAQ6cZsaEsuJX3mMWDpQCP5yBNQ8s7YECQSLzXEYealjh7PAKhpYwMqjpRoSwsJdNqy2tYNNkCVzozONvlAM41dqVhuxVdQwKIcYFVnNlTl6h23dpJ84LlmvITOTSoOTowG4Kl0Q5iCaYpd1dwxwGsL3ABVAokDAN30ON7YkZu2i0ZxJPlG9s9uBfEwbh31NV9pcCG7UpI6Gw16Zi0LHJHmOBQ8k7AGAH22oUAmk9T4SYw7geVZ4KpmzibhKpWhANSZ7tGIaaS7rYeEjsEC15VJ9wDm1q59f6dbHbOh2wICoPIr9bk/QN8wgHdOlcKGCJQFxiOMEYkW9QCEdwbCSIGh1ln2dTuiAND4lZJxU+X5DXZfBghGfQAYngGAFkRbIpd59jXLxohD5k9oJg5c9A2AuRLo+44NJg5eqerUS3PPQn4HxgLdij6UXOUlZ5gsbTLwNJeiBbARBYC6FHXi6W3rwVOxcVBxgQ5BR0UdqdQ94I2kfe//MlO+RxuW+yBYuF/zTMeoUbZGeD+g2RkFTYsC6tK0kmbLWZczbi24EsuNYucstHZK+NnWaOXKFYBgtgKeM1myRo81AvNStPSNISSxXII+MldqvLUH7R+bTHR0oh7y34jpQHcn0JV50cZs9INyzctWgClXANyi75kmg5g2syL0OEs+AOxmY9tqnen7tAw1jgQONzbUB0DlADvJca5sS7YilNSGZCcIJEtiXlrUN9KRzextSb6xCmHDpVdpsR/B2ZDfdaTfrxHYkN9szwJTsQEZM4/ZYYML3Z01QrEAFuma7B4O9MwU1liFZAtgqTGWLdECKiGBdZ2z65NnG6Pc7SM68euYw5IFMCFaUEGLm1hulGWPMFQa39yZ7SNyg+1zxm5w2Ulltq7EjZdVH3sjMvabywIos/3m8k4ELMBWG1A7ZhsPnmEzCiSbadTgSmbD2DObBlGUec422cUsTxKtoLErN/Qdad9NYWkQnl/J2Z5VecnFpqyyX56QK8WybFsSrdEYl+WJ1zH+GODVJ/tdCLlSaDpKbgC+xApLC0LCs3VlCLazIx3Zqs83SwLILrb69tlWHGLPXnL4oHFVQMwq0o71j3Y0PR865YBqWWm89iQmZ7vBgg/YVjqqpt3ORzptBFv/3tG9ul/erdFSc+rtzZ1U4DpbBfyVlNN14eZMHdzPjpsXwPR98TIaevq2++A460/Oak5PeXcxla+3nFVSjmo7Z0WLo5zu7Nsbp2r17Hi3x0kKO6sz3Z0Ue9dvGO4ex4efP5f4cn16uv3aYv//9ucV+NPtpxnx4z8=);lineShape=1;" parent="WIyWlLk6GJQsqaUBKTNV-1" vertex="1">
          <mxGeometry x="875.5327857905684" y="1487.4931336268555" width="151.0607626516243" height="24.24924018998417" as="geometry" />
        </mxCell>
        <mxCell id="D6H2GTCvEHgJT1fH2991-152" value="" style="shape=stencil(7VnLchw3DPyavaJIgs+z4/yHqyxHW1Ekl6y8/j492XAyAHd7o1MOyW01Yg8JoAE0OCf98O3x09eHUwrf3l5ffnz49fz57fGk351SOj8/Prye3/DrpB9P+uHLy+vDD68vPz9/vvz99dO2cvv108sv2xt+u+CK1LqBUvj98iANie3PJ99f1j+dnw/rY5Q+DECjtEwAVWq0gCw53QYkvE8toElSAmjzABOQg3Riw3YAe6RcRPttQI6i1ugSpFUC6FKKBRTpxIZSJTQDqFFyuQ2oKtEeqeIV5Eh1+MDhSSNeajix9VJTanQPMiyXWpNIqNG7VOulvsf+KmCoJAfI0gIBgDnWBuwZSaQH/l08YEQKGJatfcwn1wFDSjKAEWnGAdAtNUaSwgHDAbIEwqVth2ABZR7yFsDlw6iTXbe81Kxb8SQwQPNuxZ6BcAkHcOQDoLIdyozrBMQQJDAy5ZnChy0GSQjQtQ0PKAwQp407AGlO2AeuNUsmJEQm/AYg2x0aygbfQV1hKvPJTYArfVkiIdMKyGmy5SbA2oAWpKwwDUk2DugxLIMA+KtI7NzItMltXrfUiIX2rDZmDzwAKglcSz5waKyD8HsLkzU6oimRSJclR1OgOVrSbAcHtzYS6dykW7cmnbG/2Xct+aBXaGeH0TYOkDOF2KBBkrUBXKpMbGQZNnDKbSiLmim0T6sMW4uhViqhXloMUCoc0KS7N5h5CA4K3qOJhGCvofv6Snt6kOzWZ5o50VcLeIA1hjRFzoHVVOtJdmmzl8zreeaLEdYr6SIQGOrXD6ZIFoEep3q97p/gm07ihICiV5eVPMmuAPosf//wSEi7zgSJVBszTVReLD5FzigpREvMtpwkPl04gfczDy2cQ04yTbi3r4O9PMdczsCfgXBozckmha73OV9oji01ZfMA8X/yMh5v6LQm9iUnK1lfvCrC+sRr9LvWx0Vho7eyJAaDuo1wxGTCAGhbi6BgZRQMLk6ypPmK65xWCdboQcvE2rzbnBqu+1SnntmFIx1z6k7hXQbSGaQ2PwAnyqGWFwFF+wxGUVd4+XTQm9fugfZ5KPsw3HoWr7EUuUJHg3XOvKNhAXC3IndU8jYFLtqJ6fDxXqW/Au7MEmMZDTYZfGcHd8lReGva1c8+cSEOhBeHqfIw1DUWuX/p0oL79b95aeGuFP6/tLgKyM0DlFXW4eULzFJ2B1EkOzdFKjhb8wKs8+tXTNfNpVyioUb3ccWydXrXifbmvISGxJIa/dP1kzro/J5Bf+vWmmnt0zYvEPbqyiUAynuyVQDlmM2OaOF1uTfPrFh26XaHXOct9I1JwRWBDC1KwgBRYt+vCBshd/JlDE5jCZq8h5Tf0kTPO6yn3cSPXnduE3aNc5xE2NeaqUqPkxebNn1fUH6DH2XYTqX8Q0ryMhgRH4yikrJfz24r0WOW9wemmqc4OIy+rJq+9/Pa/fX48fe3vC/np6fLp8Dj//23Pzy6fDfUj38A);lineShape=1;" parent="WIyWlLk6GJQsqaUBKTNV-1" vertex="1">
          <mxGeometry x="1019.6216765364125" y="1490.1441401647376" width="16.18226388638329" height="11.994401226703314" as="geometry" />
        </mxCell>
        <mxCell id="wy76TVlNb48Dznf8ciol-0" value="&lt;font style=&quot;font-size: 18px;&quot;&gt;Genre.js&lt;/font&gt;" style="ellipse;whiteSpace=wrap;html=1;fillColor=#60a917;fontColor=#ffffff;strokeColor=#2D7600;" vertex="1" parent="WIyWlLk6GJQsqaUBKTNV-1">
          <mxGeometry x="10" y="1680" width="160" height="52.9" as="geometry" />
        </mxCell>
        <mxCell id="wy76TVlNb48Dznf8ciol-1" value="&lt;font style=&quot;font-size: 10px;&quot;&gt;require:&amp;nbsp;&lt;span style=&quot;background-color: initial;&quot;&gt;&lt;font color=&quot;#ffff33&quot;&gt;Datatypes&lt;/font&gt;&lt;br&gt;&lt;br&gt;&lt;/span&gt;&lt;font color=&quot;#66cc00&quot;&gt;module.exports&lt;/font&gt; = {(sequelize) =&amp;gt; { sequelize.define(&quot;Genre&quot;,&amp;nbsp;&lt;br&gt;{name&lt;span style=&quot;background-color: initial;&quot;&gt;, {timestamps: false})}&lt;/span&gt;&lt;br&gt;&lt;br&gt;&lt;/font&gt;" style="text;strokeColor=none;align=left;fillColor=none;html=1;verticalAlign=middle;whiteSpace=wrap;rounded=0;" vertex="1" parent="WIyWlLk6GJQsqaUBKTNV-1">
          <mxGeometry x="11.15" y="1739.999692532943" width="194.83755232210484" height="117.1303074670571" as="geometry" />
        </mxCell>
        <mxCell id="wy76TVlNb48Dznf8ciol-3" value="&lt;font style=&quot;font-size: 10px;&quot;&gt;require:&amp;nbsp;&lt;font color=&quot;#ffcc99&quot;&gt;Videogame, Genre&lt;/font&gt;&lt;br&gt;&lt;br&gt;&lt;font color=&quot;#7ea6e0&quot;&gt;getVtgByName &lt;/font&gt;= async (name) {&lt;br&gt;db = await Videogame.findAll (Op.ilike), include, clean&lt;br&gt;api = axios.get, second filter, clean&lt;br&gt;results = concat, slice (15) -&amp;gt; arr or not found&lt;br&gt;}&amp;nbsp;&lt;br&gt;&lt;br&gt;exports = &lt;font color=&quot;#7ea6e0&quot;&gt;getVtgByName&lt;/font&gt;&amp;nbsp;&lt;br&gt;&lt;/font&gt;" style="text;strokeColor=none;align=left;fillColor=none;html=1;verticalAlign=middle;whiteSpace=wrap;rounded=0;" vertex="1" parent="WIyWlLk6GJQsqaUBKTNV-1">
          <mxGeometry x="12.5" y="2050" width="253.81" height="46.85" as="geometry" />
        </mxCell>
        <mxCell id="wy76TVlNb48Dznf8ciol-2" value="&lt;font style=&quot;font-size: 18px;&quot;&gt;getVgByNameController.js&lt;/font&gt;" style="ellipse;whiteSpace=wrap;html=1;fillColor=#6a00ff;fontColor=#ffffff;strokeColor=#3700CC;" vertex="1" parent="WIyWlLk6GJQsqaUBKTNV-1">
          <mxGeometry x="11.150000000000006" y="1940" width="243.23" height="51.97" as="geometry" />
        </mxCell>
        <mxCell id="wy76TVlNb48Dznf8ciol-15" value="&lt;font style=&quot;font-size: 10px;&quot;&gt;require:&amp;nbsp;&lt;font color=&quot;#ffcc99&quot;&gt;Videogame, Genre&lt;/font&gt;&lt;br&gt;&lt;br&gt;&lt;font color=&quot;#7ea6e0&quot;&gt;getAllVg&amp;nbsp;&lt;/font&gt;= ...&lt;br&gt;db = await Videogame.findAll, clean&lt;br&gt;api = for (apiPromises.push(axios.get), Promise.all, flat, clean, slice(150)&amp;nbsp;&lt;br&gt;all = concat&amp;nbsp;&lt;br&gt;&lt;br&gt;exports = &lt;font color=&quot;#7ea6e0&quot;&gt;getAllVg&lt;/font&gt;&amp;nbsp;&lt;br&gt;&lt;/font&gt;" style="text;strokeColor=none;align=left;fillColor=none;html=1;verticalAlign=middle;whiteSpace=wrap;rounded=0;" vertex="1" parent="WIyWlLk6GJQsqaUBKTNV-1">
          <mxGeometry x="280.61" y="2050" width="175.45" height="46.85" as="geometry" />
        </mxCell>
        <mxCell id="wy76TVlNb48Dznf8ciol-16" value="&lt;font style=&quot;font-size: 18px;&quot;&gt;getAllVg.js&lt;/font&gt;" style="ellipse;whiteSpace=wrap;html=1;fillColor=#6a00ff;fontColor=#ffffff;strokeColor=#3700CC;" vertex="1" parent="WIyWlLk6GJQsqaUBKTNV-1">
          <mxGeometry x="280.61" y="1940" width="145.45" height="51.97" as="geometry" />
        </mxCell>
        <mxCell id="wy76TVlNb48Dznf8ciol-19" value="&lt;font style=&quot;font-size: 10px;&quot;&gt;require:&amp;nbsp;&lt;font color=&quot;#ffcc99&quot;&gt;Videogame, Genre&lt;/font&gt;&lt;br&gt;&lt;br&gt;&lt;font color=&quot;#7ea6e0&quot;&gt;getAllVg&amp;nbsp;&lt;/font&gt;= ...&lt;br&gt;isNaN(id) ? &#39;db&#39; &#39;rawg&#39;&lt;br&gt;if (db) -&amp;gt; VIdeogame.findByPk(id), include, clean&lt;br&gt;if (rawg) -&amp;gt; axios.get, clean&amp;nbsp;&lt;br&gt;&lt;br&gt;exports = &lt;font color=&quot;#7ea6e0&quot;&gt;getAllVg&lt;/font&gt;&amp;nbsp;&lt;br&gt;&lt;/font&gt;" style="text;strokeColor=none;align=left;fillColor=none;html=1;verticalAlign=middle;whiteSpace=wrap;rounded=0;" vertex="1" parent="WIyWlLk6GJQsqaUBKTNV-1">
          <mxGeometry x="481.75000000000006" y="2050" width="221.88" height="46.85" as="geometry" />
        </mxCell>
        <mxCell id="wy76TVlNb48Dznf8ciol-20" value="&lt;font style=&quot;font-size: 18px;&quot;&gt;getAllVg.js&lt;/font&gt;" style="ellipse;whiteSpace=wrap;html=1;fillColor=#6a00ff;fontColor=#ffffff;strokeColor=#3700CC;" vertex="1" parent="WIyWlLk6GJQsqaUBKTNV-1">
          <mxGeometry x="481.75000000000006" y="1940" width="145.45" height="51.97" as="geometry" />
        </mxCell>
        <mxCell id="wy76TVlNb48Dznf8ciol-22" value="&lt;font style=&quot;font-size: 10px;&quot;&gt;require:&amp;nbsp;&lt;font color=&quot;#ffcc99&quot;&gt;Videogame, Genre&lt;/font&gt;&lt;br&gt;&lt;br&gt;&lt;font color=&quot;#7ea6e0&quot;&gt;getAllVg&amp;nbsp;&lt;/font&gt;= ...&lt;br&gt;if(!name...) validations&lt;br&gt;vgInstance = await Videogame.create({name,...})&lt;br&gt;genresFromDb = Genre.findAll({where: name:genres}})&lt;br&gt;vgInstance.addGenres(genresFromDb)&lt;br&gt;&lt;br&gt;exports = &lt;font color=&quot;#7ea6e0&quot;&gt;getAllVg&lt;/font&gt;&amp;nbsp;&lt;br&gt;&lt;/font&gt;" style="text;strokeColor=none;align=left;fillColor=none;html=1;verticalAlign=middle;whiteSpace=wrap;rounded=0;" vertex="1" parent="WIyWlLk6GJQsqaUBKTNV-1">
          <mxGeometry x="727.01" y="2040" width="221.88" height="46.85" as="geometry" />
        </mxCell>
        <mxCell id="wy76TVlNb48Dznf8ciol-23" value="&lt;font style=&quot;font-size: 18px;&quot;&gt;postVg.js&lt;/font&gt;" style="ellipse;whiteSpace=wrap;html=1;fillColor=#6a00ff;fontColor=#ffffff;strokeColor=#3700CC;" vertex="1" parent="WIyWlLk6GJQsqaUBKTNV-1">
          <mxGeometry x="727.01" y="1930" width="145.45" height="51.97" as="geometry" />
        </mxCell>
        <mxCell id="wy76TVlNb48Dznf8ciol-28" value="&lt;font style=&quot;font-size: 10px;&quot;&gt;require:&amp;nbsp;&lt;font color=&quot;#ffcc99&quot;&gt;Genre&lt;/font&gt;&lt;br&gt;&lt;br&gt;genresAreLoaded = false;&lt;font color=&quot;#7ea6e0&quot;&gt;&lt;br&gt;getGenres&amp;nbsp;&lt;/font&gt;= ...&lt;br&gt;if(genresAreLoaded) -&amp;gt; Genre.findAll, clean&lt;br&gt;else -&amp;gt; axios.get, map(Genre.findOrCreate), Promise.all, genresAreLoaded=true&lt;br&gt;&lt;br&gt;exports = &lt;font color=&quot;#7ea6e0&quot;&gt;getAllVg&lt;/font&gt;&amp;nbsp;&lt;br&gt;&lt;/font&gt;" style="text;strokeColor=none;align=left;fillColor=none;html=1;verticalAlign=middle;whiteSpace=wrap;rounded=0;" vertex="1" parent="WIyWlLk6GJQsqaUBKTNV-1">
          <mxGeometry x="973.63" y="2040" width="176.37" height="46.85" as="geometry" />
        </mxCell>
        <mxCell id="wy76TVlNb48Dznf8ciol-29" value="&lt;font style=&quot;font-size: 18px;&quot;&gt;getGenres.js&lt;/font&gt;" style="ellipse;whiteSpace=wrap;html=1;fillColor=#6a00ff;fontColor=#ffffff;strokeColor=#3700CC;" vertex="1" parent="WIyWlLk6GJQsqaUBKTNV-1">
          <mxGeometry x="973.6299999999999" y="1930" width="145.45" height="51.97" as="geometry" />
        </mxCell>
        <mxCell id="wy76TVlNb48Dznf8ciol-60" value="" style="shape=stencil(lVjLbhsxDPyavRKi3jqn6X8EiFMbdePAcV9/X6oL2RJ3dwzf7PVwTZEz1EiTe/rcv3zsJms+L+fT993vw+tlP7kvk7WH9/3ufLjIp8k9T+7p7XTefTuffr6/zt8/Xiqyfvpx+lXf8GeOM2RcDbLm7/ygFArl/5OvM/54eB/wIY74TClu45mMwicqDuGzGfGRCm/jLSWFDxRB/o6yyscT5218ILYj3rYKrOIjJR7xhqLfxmcKY/1zJg/yYUNJBQTKCQQ48mkMkJqhf0hkxiWn0p6st4BbBa8BvnVlPSCSKUNALBQBKRw3Tl4DHBWQkkvtfS0gJEqgDd7rlAKTDYAXRv+DvAKVNSzK6jJmkqUyUtVZKLUozBlTsok80E4SaowpVTkBLqVEeWQ3Z9jpzBRHanAgiwIWemNLDKghcmElOKgfkaMaMIkYEEPkXhQxyIJ8ZJzkUW4OUlvGW1Q9aBVYx2eKY/6GGMy7Op6txoMGCL7o9xtUn9La0+EB5wTvosajfIqW/nXH2sKnrPGoPqUNkq4+QAIVr/OxQJRreHcHzwrvwRyq69X1DLg+IWk80ov0yyt8xP1lzZ+I+ZZ1v9BUrHzW9Qn4/Qv+oJlY8Xq9DutxUU97R78aj+ZbrY/Ox2D+mPCYHu1CL3f0qPWCzEHl5wKP9bXgA5zPoheNR/OZzXV9XYOxYIouqMcLfgy/2FMtHhBRO2oH/d/N3942MI/wrAdWIgfwWQaEcuCt4+v42PTU7fBowWJX88JDeNCxm13tXAo6c4hd1Xvwdddfd1piV8ce2wR3+bhogni5AqoaMtlR9uIWob2Ug9OYkg9QyPKzG3knr/CgD5KAOjqJpS1ga5Il5rGstQygSpVpKkCmAQqw2sBKKwtYtBDBjtNXyILGNft2bOhOTwWdnqwmX454YLcVdgfAiPTW7Fh3wMxgBZH8KGdxtAnUNOgKyQBB8vTNLnUHcDSPHLmRpzIAkUGz7TjfXTgwvBBQfrQ6WrCBsN7P6o6FztPNjnX4DN+v/FPdIBBFm53v8UBlvHKBgwhqtJ/odsSNgBgfDFAXDnczUoOo4kFFjZ6lN8+wgTdLPFCM0QqujID5KEMheKTgx6/c7uHlw+1+7+1wPM7Xg/3v+j5QHs13ie75Hw==);lineShape=1;" vertex="1" parent="WIyWlLk6GJQsqaUBKTNV-1">
          <mxGeometry x="185.07827687693202" y="1765.781379458297" width="75.72221887095475" height="182.1386573213374" as="geometry" />
        </mxCell>
        <mxCell id="wy76TVlNb48Dznf8ciol-61" value="" style="shape=stencil(nVnZUhsxEPwav05pdOuZkP+gChNcIZgCcv19ZsvMejXabZu8gVatY9TTc3gXbt4e7172O+/e3l+P3/e/D/fvj7vwZef94flx/3p4l7924XYXbh6Or/tvr8efz/en/1/uppnTXz+Ov6YV/pxwrVArE8q7vx8jjcpp5OsJ8HR47gHMPaCSzwCQybUekCk7AIgUzJFkhAGAKcYewMRgh1oo93eQEQ92qJ5qfyQZKX4bUIYdZKSBIxWm0t+hyA7ArDnZI+VCNQKAIw49wFOr24AUdT0FpEohAYCj5HpAJAZHitmST5bwYIcYyfV3kCUyeLgo1OjJFwOkRmgUcgeQkRoAoFBKPSBTQTvIw9UeEKiBO4SoNpkBDN8heEq9lXwjB9ganFJtBmSqbRvgqzJnBkRqgK2+qAfPgEAeHMknyv3DeaYMdEnW+3DIGeDIASvJeqm/A1eK4B1YqGEAGVKDRVR6enOiAPxBPvveSizUAFaSz7G/NHuorSxG7KkhI+hIjVrPPRYZASeqlIzYa7hYlz2K/fIV+n+mZFRV3XtdkCj3DybvBc4e1Q3P06F6Kb1m8aII5DRolJyViApyMevDsh2gPytPZo2giHhgQ6wEOGB3p1/P0wMgvjheHwccBXBVpzc7T/fgqvK1mekMz24Y7y4Y0ryqTEeiYBk5333rmbKdDgzpVecX0yFnsp3OcHr1ZjpKs7wlgaMIz16s3ROSY4qWBBkFFI3i5+kFKasutpgOfJXJD6uD6UP4xIeZveG6qw55GzbkzNfrnsnZjAqTwI2WQRQbMkJMYKc58nXuwSvuAZ2vDr4K+e4/Ixwi2JbASJa8Muo60RPnsxRDkvrJ6UGThrO+X4h8JtWCqVm0ri2hEK5ucssAc9FkRS/CDChrunOO2sjuxTpf0pJlY3oxRZmebiNbMulPgXG1acp8zpYcUjGhVDXzGxJJUUlTR2v2t5V9mqReVmCgZJLfmt6BpKtInHguQxYJMdT5agPstCeKI2yTD8ZPNpF3KBsQnae00KTcDbYCpqTWlG+syeA6oNmcRQ6JZHaq98wOEfYOporSeHyGEVFq1mAUpcJKRopm13NPilzUVpK624R0KaNhod6s58ueGRwpsorgohWAyBfHFD/AgBQT1d5KMWvAXAdUW+SmOTtYF0ev3Fy0ZFDQS9mGsVRhayyzDTXZw3fIxQabaQSwtQStqxatMdT0KUMPpxTYS6vRCl/12hxYBzStrhYNRCTFbaBGc7D51rLNPlrU1GsdUG3R1eZqeR3QrPLJEow6vyJbprZvWmBvxJ+hEGzYg9rQbpCRii9hepTTCL5EHi6BhEk+xxGA+t1teOrZcJsP0Tv1wnBbb22Sx0tbVEqDmVAeI4AQBgB6uaphdvkQ+EhufDmU/PzHLxWXAPLH+YeRh8PT0+l3leV3+0OKDJ1+hAm3/wA=);lineShape=1;" vertex="1" parent="WIyWlLk6GJQsqaUBKTNV-1">
          <mxGeometry x="266.87554218257037" y="1749.5971352265872" width="55.355266897767706" height="202.30182343703473" as="geometry" />
        </mxCell>
        <mxCell id="wy76TVlNb48Dznf8ciol-62" value="" style="shape=stencil(rVrbbh03DPya8yqQuus5Tf8jQJzaqGsHjtsmf19uDe45Gu2OG6Bv9h7OiqQoXkZ7SR++3X/6eneJ8u315fn3u78fPr/eX9Ivlxgfnu7vXh5e7a9L+nhJH748v9z99vL859Pnt/+/ftokt7/+eP5re8P3N9wYoYwNFeXH/mTov09+fQM8PjzdAnqIeQbYk0gANfQ6A2oohQBKEFAph1wJIIZRZoCGwQCCRvcRopwDeg8qM6CGRIzuJeQ4A1LQQQAx1DYBmu1DOwdsP8/70GpoDNBCmfehJeqlVkKavdQ0pE4AKaTZhtrDSASgIc8bV2uoJPiqRSuskEMiK9QWWpoBMShboQaZd7pKEOJWU0BnlUoLg+y0KZBmlUrx+D0GCHqp8I0rPdQ5NAo3utgR1RkgIRKjS/bYdEDuIROjTWOdbci2ZiYAxVjKFo7kiOaBO53NSyRas4XGHN450rxkCoCXsgYlNpgCbY6lNPyUHwM0FABYbiUbZ++Lsw3JkgCxITVMZKnQA5SyB/MO4MGXoh/5HRA98RwDNMQ5L9mTRGIp2k7P+5AsWslOxx7SHHz2ikhUis2Pyw7oNN3HgkbbKzKJ1pg9+neAFUW2whJLtmYlwRcj1jhbszEvWTIGG2ynmQ2yuDUFISvo8BO8AyLdON29vgOUekkbZg1Tkhmt1TuLGwC1wbw+27BZRaJVM6YZs4odUQNIQYAygJXd2QZzQ2E2RDxABhC2QvQSuAMsWknW0KWwG0AYQEKfd9oczQqKASKskGm/tCQNk89UXmHb7DSwji/URT5TeWgbzMmdtW+hdpRnKal5U77LKw07K8eC8uxsVs9vu7x4eTyRl4zyLEOWZb/EO7MTedBn0GJevHJfxZU1C6HDwODuOhGvCcRZLGRvq/dGm4ZyRt2bp/rjAhs6vl1ZPcau33aatSD+squ4EHFLPbN48apzIh5n3bN3eSfiEGTmWaKMYkOXfFQ9ES8dxFkGUezzk2t3Ig5Tb6RJXHBXoyeUE3EoKhIqOR7im3gVZ3VXcGgSOigKbtOezE/EFZVREgSCmU9ocTNVURmWZ8T3/EachNjCNLynTENHsglDfOK/cSQJYMEcL7R1EexchBZ9E0dHVqpMrSDO6AtbG9/O5kdB/kVodRWco0ycRyT6vVFHSkfPcHHUvfCjjbvKUurB2+PP6c7zjKI4Y08EJ4L3ThOMKO+d1YJJjzWhBxHJWBPxfurGkf+fuCLTpX68TsTbUg7YhIsxw4tNxGY7Ub/HhcYImY2qyzxPD9/C9mZaPZZ+JlN+O+EgUqhnbG3gFymdktEzlfYzGVMqb90WrobPgcU575u2k4rnWZlOi3zBgajT/F58V24acjquQAYelGSqPkxexVmHXZdplA8rbRkW9/bsbJiD93NmvS+UgFJivXu3djMsZvL+4XnxZngV0u8NLMYmz6YtXfrJjeVgFMVS7g1QyQ7o0j6rjXjEhG0cVgSwllgX3l4rLYUGGBUBrO6bE+vCy0RmQ8byaQA2l5qJuNGds1cFeUodnMip2MEaoDEbGhp97d3OSEG4x7Lix7KiLtFqAFYC1qb9WqLOqFO4vLMyUjg524FrzdTojYoFGwrnvAv2bVvKZB3BklEtS7Gdtp+R/m30HmvLSqBS5wTzcsUZ+d10Us9yeyehNI+l5VoqRcoDpaVm2itYc54aUtjbjQprV8bSPFUntY+L/pLIbM3OmoqdyNwBg44AeeHusjiNcwzomGYyd2se3nnsgOQl8rhbUGTYMndrSc5i7YDqjj4GFPzOwaxiB6g0rEB5j99jQMdLI7OKjZF1mbDNKnYHVCP2GWZVZdflGdmNsvPOx4CKFagM2ubVJTSqct54+OC+AzLNS02RYtyUJCu0hNS6Kcm81ArWOFuTdTOt4Scw25okWrtg8LVKP4HpEQ9QG5R96cWr8t6eR9qy9o4HqHOmd4gn9x3Q6Qoj4UXwUOqlUVClkSldNpY+fVSf344BS8myV7CSNZaStX1gxYwe+CWFPWHBtwGWD7ZoVykLQWQIdhV0uAQ7o4dGMLrt0E3sdm37ebGBfuI1nEO4BRA3bT7BGY6zSxsCr7TeRUCmGYOO3NdY+O9m/+TnfO8D7I/r14NfHh4f3z4+vP0dvza0R29fKqaP/wA=);lineShape=1;" vertex="1" parent="WIyWlLk6GJQsqaUBKTNV-1">
          <mxGeometry x="279.7131320115443" y="1729.3949198170183" width="242.51950434395258" height="223.5009725863797" as="geometry" />
        </mxCell>
        <mxCell id="wy76TVlNb48Dznf8ciol-63" value="" style="shape=stencil(lVpdcx0nDP0191UDCAQ8p+n/yEyc2lPXzjhum/z7auth7+WwexK/2awOCH1L3It++Hb/6evdJYVvry/Pf979+/D59f6iv11Seni6v3t5ePW/Lvrxoh++PL/c/fHy/PfT57f/v37aKLe//nr+Z9vh+xuud2m6oVL4sa/0+v/K72+Ax4enW0ATA0CTzAB1fN4BVUImAJNgM6CIRgLIkuAElZgIIEmKMyBIsXNAcymlCdCqFHIH/5xmKbUssRNAlhJmQOAnRLFZStWk6jmgNul9BriUCgEYSsm6ZHaCis4nWBEjl65BMgCidKJpq2JtApQmSliyLDpLqfgKsVYL0vMMcD2QE4qb93xCdj2QE4pKLzNAqT84A+BA2qUQ885V4iwlNVFygjPQZj2ockAQm++g3Fq1Dr0OQPKoEQigjM87wKQQsTrHYZZSKhLYCUHarLikYgTgHCMg0TukOhjYAVGUKM451llxyXXPAG5Lc5iJXYwB0ogRO6DRcO8cg8dFrjjnuM4OFKu0dg5wjltFAHNRBwQ4wYZmjgFN0gJQBnCfns07lpEmjwEmlhGQSOTb9pttKWYaNRwQCgIS8Tj/rLPxRZVKTMM/l4QAlh9iWjSdaBaNHtzh0vvKGQCyqK8oE2tY7hBG5j6uBDCvO30iiu5DInvhIEa01pAdx5P0VtGbG3Xmium2UX0Z+lmVShzZhhNeyZlFF0whNhZOyHMGcpplMZIaraa8mIIyQRqRjJdmFchZftXhqVdyxoyiIDM1ySS9AXkmfp7EIpAHctWEoVCpAUdM28rDmpTZCBIt5yKGqJ/ED4z7adT9h+Tu+UgeiIntBcweCoZkT8jD7Np7LXtGHoBcSVI8IOdXXZiJnLwAeeC8dySngowZyUmcCcN5bsip3NOyO7F3J28oGcq7LnInvhpGX3qjVb47kjPXPuCd1dhOjlrlBpzwqkacL2DmC6MwPCN/3+7Q8gdaih/YOwvYB97EquojX+WRALWaOO9owKwmcHI0AtYs7ub9y8637E7J07I7tXeYy+xW8avOx/Lqu8krlHqjYTwhhzQcqYlFLCGiNHLVOAzwmpvYwCqOMcqVnCWbhBaZaAeWRtC6SfKsJRxl400JQVx76cszNWDF1svLH+Ieikmet1EZY2ShFplxzFFowC541cInQVJgvkaNoIxG/UqeiVYNBWnUCAynUrzcX4a6dTSDJ40QhNRGY2Qb0f9KzlqVjmHJF4hFdmxVOi3It6ZypvcVZpNxqWsdwIYsca9Mb/pcluod0GbT8ZXIAIodUUx0WhyXwalvoSyilZHGbgCNScntGQKyn8nmDYaBxwGNibWig/mZVHFtUVwZ4+DTURSYhtEI4QC8tNETtrQFJ+zDqbOBHU74Kp/wuSEsEz5mfNvQEQCdZt4tai5Tys4AFRuULR3z0SyIdetcSbTTsAB0lEJn42Xoaq5DhtMBNsyjjY5nthE5DH8rlVIOqGnlzU1WzCCaxsTpGFCxgFPuD2V/RtsBnee0jNVwTmOUegxwn4b6wPiDzjI1KIGGSsv4oFOU2pJVdFFnsrOHtYDpzZlk06+q+Dho/EW02nhn2AGdtsm1Y79WE61dmoeZ5fmRRe+Wl5zuemBvrnU8Qe0ApTV168v4tFKP6wml1PncpGcc5fkWbKbeDdsC34JNxHrFPO1bsBlw98oIJtKNanp73p/F6ivM+DaALQAmpY6BrPNHqd7xZbrzsXoMS4vuCFrOHCNIdD1kig2RD6/NktahYFl07YuBX888BUABFHiDv92xvRtRFqa4YN/5i5OfA/yP6w9cvjw8Pr79Pub2O/4gxpfefkyjH/8D);lineShape=1;" vertex="1" parent="WIyWlLk6GJQsqaUBKTNV-1">
          <mxGeometry x="280.92988862169545" y="1716.6240342000224" width="488.300941847732" height="226.27491153344772" as="geometry" />
        </mxCell>
        <mxCell id="wy76TVlNb48Dznf8ciol-64" value="" style="shape=stencil(lZvbch23EUW/hq8o3C/Piv0fqrIcsaJIKllO7L9Po1gYzmzMWQzfpEPsAaa70ZfdPU/pwx+fP37/9BT9Hz9/fPvXp/8+//bz81P6x1OMz18/f/rx/NP+9ZR+eUoffv/249M/f3z78+tvL////nGunP/697f/zCf89YIbw/UxUdH/ffwyXn759QXw5fnrFRCaAgIBuovhCmiuBwA0l9MVUF2hHezP/goozhOguNSvgORCBkB2UXYIztM7RDfyBdC7qw0AYf35AFQXKwC8y7JDch3eoQ/VQw8ueQB05+MF0Lpr8A524n5VXKtoGr24etVDSyilnl0pV0BYmrkHJJevgNpdjwCILl81Xc26OgCCy1exVjsk7WCKu2q6xiWGW0AbrsqRzPgIYGq63ukyXIMjGcBfFVe6K6CH1ly6Gl9p65D3gOqq7FBdA2ttxfWrlEpZnuoRwHsFeHrpvAGyC3CnW3T9akvFvEYBQHBFpBQZ4JcXOgABAWbM9Wp8xaMjM2MeVz3kgbZUiwsCaG6AadTk0lVK+djzHmBSkh2KG2BLZsz9KqWcl7e9B1gESgrwINZpm1ex5uQi2JKZWpQjxeUW7gFp00NwjV46ulYUQIorW0DJ3hU6knd1KIBinFlOu75DGug1cl9x/wQg8zZTk4CS+hLDPaAu534CJJCSmVr3CiCvYZbTZIeGIcssR7y3ARLtEDWgJLtA9NJhBdkToMCNM6lLcmKAAMY3pS4vbZEbkhN7xTIUQBfIDpAFkDHXsOdJzmeARC+dl/UfAMuXwDTszxKy7JdMR4oadg3gSUpREyz7pUKMS5bsdAXgS/uVu5wAdKfjVg4k9ksGEM9ngAxHin27DwFDVjzizQHwKxA/AqiU/DKWe0DVOG0Aqh9iUc9nYqj0DlmzGQMEkpLFh6u1mtwK7RC3HRpG0Wh67QqgKxr9uvIHoGJACUOTE5MbVSihq7UagOJD2NyMCTrDjQuWhl5vnAma3Ewoy/pPAAq7IWtyYppJYEsG8AII6ARCUvM2gAdNh6gJlqkykliDRlFTJV0gA4SraZgqG+nBax1nAPJLBhBXGTiKjlWDHeuPCuTBen+9PqZ5SnPNixVdn+AFLAWV52cuyfT+2/oAEt1ugpkJeSS769t6fr4US2ZVFBeqZgy2PlKdoWzGNEIqM5SFsvVkokdJcVpPrqVo8DcL7Ph8KYhtfcbn++35ntJIrUgGOom8EVxL3w+Wiw/qGDuSOsWOgWCrCDsG/LTRTiuvuo9LKpmGIcCya316oKinFXllx6bpU2Xnv+7o63L0gkqMFiw9wornr8vJRQU1AquqQTJeE46MBu9VTQlpZr8qydflBeTul85fl5OJeZcklcEswKvz5uLeK1kcl2QfLBeGJSAd6NUT28vg2bflRCtvcdZjWPBqMx6zo+Ovp+VoYiHocnBLfnn003JUk5TNHqs1r/Q5M21eOSe/CqVHy1WQ6X1P58u3nb3g8qBqqqwmlTuRAzdaJS/mNTPzK/X6fy2Sekc39k5pxM1tyu9bTmH4sNeTifFyNQJicQ7zPtk7uyU9+xuXb/MEfPk2T8D2vkmGPfB2+fDs++Xjp79vuaaGb0QP6VjFN1yqFDoR6Re/1eTYi72J2hGXS/Gb3rirQxhn1GpQE8voxcLSyimfAckEJRQLdkeDSoYZ0bAo3FOmR/yPphAV/UzcWopIk8eVw77mwER3JfXAbeXQD5ZLB7Uxk6uNDa4O8jrqqfYAQWZNmTsaQVbJDGQZiuYzY1nFoyJRim5Ol7b2+Cwq4fRW5FZdT6VTVTcZmIqtSqHPohvEU5UQt/Uk/baRMHGVjg/WSxof2Js1ZTAnl0Y9ZTe6rqfn983TZ+w+bW0VW0+k01AHGAomZkP51FCRhAlbfm6AwTyehJPQ0OObAUggD50rZKuoRWfMnE+2symAmCTTaZIIyunuZGw3AhYL67waTSdOGOv8smYjTgBi2ya5KQVtYrG2jQjPzGtvkwaRG3RhKLdh7olqlLj1nyfJB3qYZEtQAPUXTIhCAk7alLphSRulMzgRuZS3HTqOucxOkihuIDc/ffAGwAZd0zQoce48vd5QADJqXW3JAJh+jEVBHICA2b8BhA1PfOPsAHuTke50OkbhTgCaKZl91GvaMluxxJnGbfghYt07+88iJW49zQ733rCmvK5o7ZASv/SWACQOcHM2YgN0alh39XxzcICkNDSxNgDlYHmLQHP4gRLOqClkqshFzomPfYCDks68DdI0jNNzaiUqgLpbuW6FWUP6dU7eiFj7SrbuAf1uVIcAQ/P+OQxEybDfhlAG3ukStE2RPQaUOWPVFUBdljnFdb2imf1SKcok54gM6OuU5AlAF2jOusmcGI/UlrHx+FxWz3k92aFgFJ0TgbJD5R2KtpNzQxKv1k0PHRU35yZFrANDVtv4qmmONCEbNPee5kiAqEli4aZE25p2Zo6NqquiIatk7hGX1QA6AAXrvTnlK4PHFeNDa8oVlIbpT+vKSk6DpyN1rR/M4PFIQ+cmK2czfZtlqBFd5ZwYlyZh5iF2i0BX0zCDp6DYk2YCZvBEa/es7W4zeJq27mXZ5gFIWKr3qrb0OuF9D+jaJjBVUv3Qh6ZwppkBmh4bdTrlRh91hI2qKhjYx9bK7h3bOvM7E/m4hnspo2jjc0ScU5jfysgOGb3GaNvHNRVv3PzeR0ixhqzVGEpDjY601dhyvsGDxxOwfbOEXxQNZX7sFxwfGlo0jcG9eb/1hsZARTxAIJ1zh6Ds4fY1aEj2VlB4Je5UQRTTrbLf+EBNRutPcniICO9FvPurubcA9o/Xj/R+f/7y5eUbv/Pf9aM+++nlg8D0y/8A);lineShape=1;" vertex="1" parent="WIyWlLk6GJQsqaUBKTNV-1">
          <mxGeometry x="289.88367198044193" y="1687.207258687294" width="718.3489809430291" height="252.6883744884285" as="geometry" />
        </mxCell>
        <mxCell id="wy76TVlNb48Dznf8ciol-65" value="" style="shape=stencil(lVrJclw3DPwaXVkkwfXsJP/hKsuxKo7lkp3t79OMik+PzXk98U0LeoZYCDQAPti7b5/ef318iP7b95fn3x7/evrw/dOD/fQQ49OXT48vT9/x04P9/GDvPj6/PP768vzHlw+vv399PyTHT78//zk+4e9XnHfeBij6f17/0Lsr6b+//PIq//npyyKfIsuHqOQ7yTdX8rV8cLmzfBDycZOvLodr+eQ8nae4Wq7ls6t+lc+u+2v56lJd5ZPr9Vq+O6Pzm+tN2Cc4oy+IrncBsA0QNCC7WBjghQqhOk828s6EjUKbLpqA1l1WSnfX0wporguvIYwsMsDENyCOyM+tumYCgEAqDIgqUGHW1dOtuCL8EPFvY4BXgMZ+aNklpfQWfC25JjxtfuaGEyAKK1lwjaxk0tOGYCal8RdhVrP57xPAFCBtsRRcVUdCCugMiCLlWeGc1GA3Ea1WZ2yeAOrGGXLiCqh95p0rQCdAk+FtnfM2AEHokLyra5qpSMQiCSRYffV0LfJICVc0MiAogG3fgPugakNydQ2NmuQVTXnWjgNgM7puA8pmJZOxlKorBIguKaXbBkBJFaGR+lTxAPiZeG5XRM+psnRZ0jM8vab70vQ3RFfoG2AGYaVsLq1JoBTJYjLS1mqlkjUgO79eoJKmoa8AFBoF4aisVFwipaNr6kgou2TWIIMvH0Y8Aby4D7nN2DwA3gVxpwFoKyB3eUXxb1uVzpruAdBWT0OrIHTAidOaBGBoL440bEI6pFnErgBl9QPCUUUr/Gp0pDjpym2Azbp/APwsk1eAvgJwy5NwHKKf2AwST1NmLS6ujkNqC+I+lK3GIduq+oAcQXc6Ra1057KLEqOYAPJcXv1gR3TdBgTmrairJqyEXJ1XK4EbKIKFapBWHcA+VLpHgSJ2D37jBZtBCSRmDMqlahyKbCKlg+R8qPvkOPDMqpRukxIegDtm7cyMwZXVFR38i46U5X0Aw8srExh8XxwJpJMcNzpT4QfwYGoU0bOo3AqmbeuR0BWpCtS2hgN9VxCeRnsRViuFMhnUbUDlvBSO77wCEFlHd9qVWRvzpQCzilSJRjKtiQwNs1K6HxXtaF5l/w15YqFN5gz0zpQoqwxVyFOLVWSnC/nWSV7qG7l1yDIN9y2FJTn/gDxRgCQ5dze2j8l5DORrI3mVjXpi4qbT3RjXsHxU+uYtpCcduC1fmJ/7GbFX8pXlVW7slQd6fjr8Sp4Gel7WD8j3wPLqPFsZ93NKcSVP9oe8ILW9M7/zch4J+cqfL+Onz/Hdyf5qnteZeh0s40q+JZJXWR3ymfWtKp4752jvmvLvVow11YS85/NL+bqfX57noPcnfZV8mbz1ZE99vwrrq+bH4z7y55v+fBqkeNnwQ9/I51H9DeQr21+1N/BX5Hi+cx83e3p9vyLHm8wnfbe/rF/bYMrPbur26Nh7nop6ORT9YcDIWFwBJIPAjSEyKmd3I6NHklc9BCKOMqJN5nhVwXIhecXJRoVcIwKNnGJAiStA1hGX2P5ZDrC6ccZCb6r0NZ5qVB3Rkee/dYbglTzdgKblA9+A4GeEXAEo5YLjRpWD/NY6HBO2KxadVxMFkzsj8PRCtDvLfQs6AaLR6DWaOlLhTUI4MtlV+0OJAv2SGsABQGaNunVo2wpocEvVhhrXstFVqm+IHKqjb1WA48SnzlitT9AZB1K6Sb6O3pumjmiYVENTKxMoC3LaNdYANAOJsuTXzBsdS3JXUbdpl2VZ9OvmadNdWTXuOsakSE1ZIrehYwOjpixhqniadiWR9qpnxyWTzL00NuuY2AkdSuVWJRW5Ei3bhnNMHdU3bKUq6b3X25D+PDlV32Czuz3PZkXwla1/HdNfBdiWGznJ+gAAOS7rPXAJ28i7yh6wHBT8NIWPd4bqpEOXgDG2p+WGbkvH5xEgSKVxYpr+DrsJs8Im1GgWPV8GwGjJZHpBU7goIhzVIDRnrnEI+HpnK0WAogHHuv4AVDniQzAbfUPTa6zIbwpKlw1q3qK1em2lg44fgCB1SNtioEaZyFLbFscmc2vamjBUjPBje+AkSXfKfIFQxNQOFbma5gqoq6pRRTWgsovK7RUg8qSj6lgCgLhGbXIKnwK/RBrsQz9CSBugCrNa3x60eElOUMbJD83L7G11e9ASJIWz7TUVWKBSGtylFwao0LDENa7pRwi2zVwBUJwPhI3WJ+DKagr2tlI6AFmOXeM2NgNALSwHrSUrlTn5vA3YBk+tSr40ngo2BqgVEMg/7YHRRqkdKtoLdlzTT8gOSngAumRkYZt2AqAe5YTG20E0m1lkvreV0gEIcqAdEpOTHmW0hu0JWdcrgrBt/Lt+1bZxk54l+6l8G/qdXfn2JrfKgUDiAcUYCqoUM116yOs8vN3mMeRTcbrZs8sGLmwO03v4sOnbZfEMzLiHvPx8eqrQ9U4wcF07zRBvAjzf4/sAYpJ3TuT53t/R2G9Pfrvc8h07lv/psVuvzFVEbCPYruv4j79ivyePH96ezH98+vz59cX9+f/8xB5/en2ebz//Cw==);lineShape=1;" vertex="1" parent="WIyWlLk6GJQsqaUBKTNV-1">
          <mxGeometry x="259.0245711915902" y="1547.3306438881996" width="62.682369371973664" height="222.97361542460976" as="geometry" />
        </mxCell>
        <mxCell id="wy76TVlNb48Dznf8ciol-66" value="" style="shape=stencil(rZtJjhw3EEVP01uC87CW7XsIkGQ1LEuGLE+3d9BtZld+Zr2CAe+kav5MMhjDjyGf0ptfP7795f1T9L9++/rlp/d/PL/79vEpffcU4/Pnj++/Pn+zfz2l75/Smw9fvr7/8euX3z6/e/n/L2/nyvmvn7/8Pp/w5wsuZjfGREX/18svY7jW//nlhxfAp+fPt4Diej8DuhsRANWVpIBYAdBcjmeA/ZIB0F2WM9g7aUt2xHAGFJdhS8lvUsouFQBEl/wZkFxMAEiu5DMgukCA7Fo5A4LzIKVU3BCAd57OUPXQfbhAUmquC6C7BPeQumtn1ejNFXrDcOV8hl5dB0D265puAHSGHNY1HQBWjRyXEA+A3cxAwL87vgF4sLicXBVAcokAWS2uR1dBNXJZ9nUAwrLya0DdxGrK1wDQXGxngHeR3mA+4mxAbbhMANPNs9do3VXYUvHLvg6A6S9IqYR1TTcA7wFgFixnMOWjLSUXzmJtBd1MyZuUMhpQKcv1HoCE7r7UZcE3ADy0+Wo5Q0TPV+ya5A1hPeIaMNTNNO8qnKEGvYc6UL3r5r0NQCZazXuf1bt2PHTNGkVrcwkurprmnA9tv5CU7HnlHONqWSHmGtBdP9uDbbKG+wCTumiriaGC57N7Fe9tgm6wJdOcIVIKqK0tq1+qHuOD2Vc7v8G0a9CWzJFFBVAUffVCB6CjEzDHKI7MTIpcpbnectZWM9oMYdeiQZMtFbxpizfCBMzx0D1YzBRtNdc24B4sKqcNEOgMbTt0ZCl1jaLmzzMdeiyncgC8K/AGo1P9vCWLSWQPRtjEkVnU6+BbjRKO8xksrhL3NpbqowI8HNoAQwDVeTpDWTHzABRUb6Pm9eyXjK5EeoM5RgGkpSz3AOLIjHKRPcx85HzTxgIz3YPpkrzBeCa4ewP0s18yJkvxYeZUZ7EaVw50cZv3nvQdHNl+BksQUFu7MgFLQTKdoam2WpIT+OLEplNwg9/gBeBXRnFP+fJZlywVLCTWLT5YskmMzADCKi2djWxx+XwGS5gDuZm0uPwBKAzYEg5L+hO7GRFrTMi9zfPJTUcLMeS9h0YgA5BfMu8tqhEDnsHig5cteY5xlgOdtxQG+ta+pWWBbdritBDd0BdtvKYOY2WeB8BMihiZqVpRQCRykrUmECpmisbI9AwVEz8jiZL4hbJY4D3eOjaAJyq9mWjIKFZjqVL9MQCVWox01rPyhcSp5dB0wACRUsu2iTVyWma+uiiA7MHoVDt7jRCQa5SgbMYACZTPyE6XM3g8Q25KHQxA2mrMQoKiuREqzSQlMwMLjxb1xSt1TE8shssldNx/alrja3gFFpCLJOsugdqlpKlGRdJt0bVLiugKxGcLrsImKzq8WZc9P7+g+7Lj+SzrycxmKVqfj3XirIZfMDTHTZ5lCeB6fdSIkJdJXK8PapN5cbLr9V7rGBnLq2FLPTNWiC1YSBKWFm29Xl+1bJiwDmOOXPSBaYW5ZYl/aQWT6/VJs/+Eqbm5zChMaiVk1+uPGufr+gr2NZa2vy4n9eyaGEVMpJrS8bBi+bU/11JKWMZw7QvdEO+PUTttrhwr1EcivZZ7NHSv+ZlHP+W1TutXf+jeci/Lee9S7/cYVLz2E46q2T3JBFlO9MortffooYJWfz3WcoP6M376QeFvllMncb9V6sxEdTYenUFcruXmVkEJ4rrzGxUDyRymeaPAKMjtmtBRaj/TYza19SV4uf1V9Z3yfr84x81yfHpQfS8Q0/yuM1SU2xiIR9a7Vag9FiC8puIea19ew7fHRCXskmHjK9tykExQh+1XAvx/LC9LEDcqRt2K/Zowb9WaesBaV1dabMGGaI3XzQc21qDF64B9QaMRWptAvxeS+pqIEcRoUFOaQvFsJtj6fPQ2VWNOxKqb0cSiNJHqT0ZDNxpHra6wTWckDPdxa+8lpHGzNiXVW0zb5uuV1lPnzf4s8sxIE824itJ03H/VNlrB8oWZlzYykOAYb93TMEqDvRYvDq55vT5qGlDRflPeurFIXVPdmuLYSpqVdU2zqYeeve6no2ee3QctExC3yFkTgYG0K1ctCA8MuXn3n8zritdQZADKBsrmEQOPh5SsIjIA1fDKoTI39S8MYH01mW4A2A73qkUGGGCWNSrTN0dP/ZGaV8/oBoBjCVX5SeACQN1SysCzSc1rymrBhAhWS2oLoWCwbEVrEqEi42td0zOLP0Sz5mBRVAAR3L75I4tYFKB63tR7YGGlb+NSM8aBAfWtCD65KQGGZkczKlJt4sgRbgCd+rZBi6+TVlBjKym1jw/6tklnYmZgBvUeWXVpRkICbHNus9dGgKMVdwAai7VqG3b2C6nX1pQcxYHzhqNr/SFx/mYAoQspIL8YQy9u9m1pS0NTxNkZJtU45iIOQEGKOraRrwfd7eC3qs6jBvrQjGi26KnTu82HTGLwQEzCOwMWBGdPX94QH+mGRMWcGNC2QYaMLYZRtZKRCyYvY+vZ5Aft7XIxsoIXl7ahmI50ZvbDuwIoPR1bK2z2usio/cXoEOl33zpJJeAEe99G3o1zkXPtTW20cEuyVy1xFR5Ttqgo91COIvI1IGkeVgr223pUX1kq8tC+VcZKw0mgNtQeCrtvYycSIMrAElOrmsxXrvDOCeCoAOKhbbOHGvAeWlyqdgAiD01ulayaVifumocONSDjvjSnY8RVqre1YA5dm+ZwRpZxCKDoRJY9gppRtmNp3laeBKpJJx9MDBHuwaQu7aXGJb8525oVQPcw5xJkcjrgSKNpf5YZ+cgD6U3zgcZznGbB0oNrXL0p22hpyzyMkV2QN/AXHXPydBvbjySlqAXG1tYjrgGbARmA6MzFtwp9zSpc5/jj4vMJuum8zUB2boPlY179AATsV+atW2wAqhMZs9g/Y6H4kPPFhzL4zUi6+BSHyElOFx/7kLYaYYtn39oL+iWjhPsHSzi04i8+iaJGsNFaiUDGDSoBujLj3pHepy1l7zx4k6qGrMFdUksXmgDCsvJ7NUSR0uCvUizlkalj45k04pu27uec7OSyqdzDKFh3fC3rHYCKrbi4RdHRsOYVtzG0wTEubp8IviaP9wDijGdqR23cqhRuDB4iKhdbInu4+KB1rOrLPYB+eTmQkcWyleE89/5i2SY/HyMkuXy8KYkQj48ddgBp05bJvebY14CsVa+pHGQRW8oxBk9c/eevnR8D7B+vH1d/eP706eXb7Nu/68fY9tPLh9zp+78B);lineShape=1;" vertex="1" parent="WIyWlLk6GJQsqaUBKTNV-1">
          <mxGeometry x="295.5220694777445" y="1230.5115042750863" width="94.45334971205398" height="323.7195661713581" as="geometry" />
        </mxCell>
        <mxCell id="wy76TVlNb48Dznf8ciol-69" value="" style="shape=stencil(lVjLctswDPwaXzEkCL7OafofmUnSeJrGGSd9/X2heqgYkLWKb4qCNUnsYgFql27enu5eH3Yc3t6Ph+8Pv/f370+79GXHvH95ejju3/Vpl2536ebxcHz4djz8fLk//f16N0VOTz8Ov6Zf+HPCMZU+gTj8Pb1olST/f/P1FP+8fzmLr9TFxifKvB4fM3EygFqoAQAnCs0ASqMm64AUqdoVSqDSAKBTrQaQE8W6DpDmzyCFYl8H5EwxG8C0ZloHFB6/NwMSCdiS5iQFA1BmWgG8KU2WOE10BFlqgcRuKVaYpZYpFQuIxBEAOrE9Q2yUQVp1SyV5QANb0kOHJQDxkMcRzwAVMa3VUhYAwIMsxDcBgLwleS1NACRvoR6vyRIX6mwBnQKq6e5NQN8gLbEstMQU0JayZ5oDBZAlXSHZtHKjDohT42v2DKlQBWplFbP1JdE1cZayPXRmymCFCWDrQY0sAS1NAEtc0y0BHiaa7Arq9nBLavcW0AM+dPEV13mc6jIgUXUrJGj3aiquHrpgI6MifgG0o0Li4iN0VhnVOOe0j1+4XJ/Dgeb4MqpjJd536AQpmCUwxwdisP882vHcoOsovpUJoFnHq3lQeJmw4FtVlXGkywBerLAByIsVMqxllXWSa878YbmfTKpWmlg/2mBNAekqWeiWPM9Yd1qa1RK9Iewo3l42Kmcyddt5Nkqzj1Hzk7WvA4jbEDaXPDj6pHsJBRu/YY/JW8uG/14fX218zlB1WiZWdJJHW1yxOmdFSc0ADP/aUi1fuiKK776QVVKoKU/ebjWtjCOFag1YwemUAPTAi/EuwJE2sR+aN/QTxtz0ES/AVvQakfx+0NSv95TizytAPyUu8yMgn6WPqexz+1fXdHwFqDe1tFqu2P9kB+6GMIawlVYz8382aEbAWK9+ImJ8aVHPlOXFC51ZObMALTJGN+zir0USx/1zjTWxLEulAMpMb5uu7qfJFN9nna5zh0JSYVc7tOjNqoND6/3YTXWVh5ldBgRfCtqRE8gSs28ereFhWZudG2WxmzZfDL1jGqhXH48+EuTxVWPWdsB2t7gT6QINthvfXjs88LLdN3ybGOmY4+c57GL8bD5nBHQY79p3x+11YRY6TlQg0rAYJyJsT4Gak2jHc+xiPGjQfq/9drcdrw8fHwof98/Pp++M5//3Hxb11emjZLr9Bw==);lineShape=1;" vertex="1" parent="WIyWlLk6GJQsqaUBKTNV-1">
          <mxGeometry x="289.7830016263256" y="1226.0690516902555" width="16.266810713838368" height="13.149566986173795" as="geometry" />
        </mxCell>
      </root>
    </mxGraphModel>
  </diagram>
</mxfile>
